<svg width="655" height="349" viewBox="0 0 655 349" fill="none" xmlns="http://www.w3.org/2000/svg">
<path fill-rule="evenodd" clip-rule="evenodd" d="M377.998 348.998C530.981 348.998 654.998 271.096 654.998 174.998C654.998 78.9005 530.981 0.998047 377.998 0.998047C278.21 0.998047 190.747 34.1431 141.986 83.863L1.77761 68.8955C0.760671 68.787 0.255795 70.0944 1.08177 70.6975L104.728 146.376C102.274 155.688 100.998 165.249 100.998 174.998C100.998 271.096 225.015 348.998 377.998 348.998Z" fill="#23A9E1"/>
<path d="M191.43 117.121C191.794 117.736 192.041 118.386 192.171 119.071C192.301 119.756 192.314 120.432 192.21 121.099C192.106 121.766 191.889 122.408 191.56 123.023C191.231 123.638 190.793 124.184 190.247 124.661L189.545 124.206C189.415 124.128 189.354 124.028 189.363 123.907C189.38 123.777 189.424 123.673 189.493 123.595C189.718 123.318 189.909 122.984 190.065 122.594C190.23 122.195 190.334 121.771 190.377 121.32C190.429 120.861 190.407 120.388 190.312 119.903C190.225 119.418 190.048 118.95 189.779 118.499C189.666 118.317 189.632 118.157 189.675 118.018C189.727 117.871 189.835 117.762 190 117.693L191.43 117.121ZM195.382 117.121C195.746 117.736 195.993 118.386 196.123 119.071C196.253 119.756 196.266 120.432 196.162 121.099C196.058 121.766 195.841 122.408 195.512 123.023C195.183 123.638 194.745 124.184 194.199 124.661L193.497 124.206C193.367 124.128 193.306 124.028 193.315 123.907C193.332 123.777 193.376 123.673 193.445 123.595C193.67 123.318 193.861 122.984 194.017 122.594C194.182 122.195 194.286 121.771 194.329 121.32C194.381 120.861 194.359 120.388 194.264 119.903C194.177 119.418 194 118.95 193.731 118.499C193.618 118.317 193.584 118.157 193.627 118.018C193.679 117.871 193.787 117.762 193.952 117.693L195.382 117.121ZM219.776 118.369V136.998H217.566V123.309C217.566 123.127 217.57 122.932 217.579 122.724C217.596 122.516 217.614 122.304 217.631 122.087L211.235 133.735C211.036 134.125 210.732 134.32 210.325 134.32H209.961C209.554 134.32 209.25 134.125 209.051 133.735L202.525 122.035C202.577 122.494 202.603 122.919 202.603 123.309V136.998H200.393V118.369H202.252C202.477 118.369 202.651 118.391 202.772 118.434C202.893 118.477 203.01 118.599 203.123 118.798L209.558 130.264C209.662 130.472 209.762 130.689 209.857 130.914C209.961 131.139 210.056 131.369 210.143 131.603C210.23 131.369 210.321 131.139 210.416 130.914C210.511 130.68 210.615 130.459 210.728 130.251L217.046 118.798C217.15 118.599 217.263 118.477 217.384 118.434C217.514 118.391 217.692 118.369 217.917 118.369H219.776ZM231.27 131.07C230.204 131.105 229.294 131.191 228.54 131.33C227.794 131.46 227.183 131.633 226.707 131.85C226.239 132.067 225.896 132.322 225.68 132.617C225.472 132.912 225.368 133.241 225.368 133.605C225.368 133.952 225.424 134.251 225.537 134.502C225.649 134.753 225.801 134.961 225.992 135.126C226.191 135.282 226.421 135.399 226.681 135.477C226.949 135.546 227.235 135.581 227.539 135.581C227.946 135.581 228.319 135.542 228.657 135.464C228.995 135.377 229.311 135.256 229.606 135.1C229.909 134.944 230.195 134.758 230.464 134.541C230.741 134.324 231.01 134.077 231.27 133.8V131.07ZM223.795 125.688C224.523 124.986 225.307 124.462 226.148 124.115C226.988 123.768 227.92 123.595 228.943 123.595C229.679 123.595 230.334 123.716 230.906 123.959C231.478 124.202 231.959 124.54 232.349 124.973C232.739 125.406 233.033 125.931 233.233 126.546C233.432 127.161 233.532 127.837 233.532 128.574V136.998H232.505C232.279 136.998 232.106 136.963 231.985 136.894C231.863 136.816 231.768 136.669 231.699 136.452L231.439 135.204C231.092 135.525 230.754 135.811 230.425 136.062C230.095 136.305 229.749 136.513 229.385 136.686C229.021 136.851 228.631 136.976 228.215 137.063C227.807 137.158 227.352 137.206 226.85 137.206C226.338 137.206 225.857 137.137 225.407 136.998C224.956 136.851 224.562 136.634 224.224 136.348C223.894 136.062 223.63 135.702 223.431 135.269C223.24 134.827 223.145 134.307 223.145 133.709C223.145 133.189 223.288 132.691 223.574 132.214C223.86 131.729 224.323 131.3 224.965 130.927C225.606 130.554 226.442 130.251 227.474 130.017C228.505 129.774 229.77 129.636 231.27 129.601V128.574C231.27 127.551 231.049 126.78 230.607 126.26C230.165 125.731 229.519 125.467 228.67 125.467C228.098 125.467 227.617 125.541 227.227 125.688C226.845 125.827 226.512 125.987 226.226 126.169C225.948 126.342 225.706 126.503 225.498 126.65C225.298 126.789 225.099 126.858 224.9 126.858C224.744 126.858 224.609 126.819 224.497 126.741C224.384 126.654 224.289 126.55 224.211 126.429L223.795 125.688ZM239.969 117.849V136.998H237.655V117.849H239.969ZM246.685 123.829V136.998H244.371V123.829H246.685ZM247.179 119.695C247.179 119.92 247.131 120.133 247.036 120.332C246.949 120.523 246.828 120.696 246.672 120.852C246.525 120.999 246.347 121.116 246.139 121.203C245.94 121.29 245.727 121.333 245.502 121.333C245.277 121.333 245.064 121.29 244.865 121.203C244.674 121.116 244.505 120.999 244.358 120.852C244.211 120.696 244.094 120.523 244.007 120.332C243.92 120.133 243.877 119.92 243.877 119.695C243.877 119.47 243.92 119.257 244.007 119.058C244.094 118.85 244.211 118.672 244.358 118.525C244.505 118.369 244.674 118.248 244.865 118.161C245.064 118.074 245.277 118.031 245.502 118.031C245.727 118.031 245.94 118.074 246.139 118.161C246.347 118.248 246.525 118.369 246.672 118.525C246.828 118.672 246.949 118.85 247.036 119.058C247.131 119.257 247.179 119.47 247.179 119.695ZM253.191 125.74C253.477 125.419 253.781 125.129 254.101 124.869C254.422 124.609 254.76 124.388 255.115 124.206C255.479 124.015 255.861 123.872 256.259 123.777C256.667 123.673 257.104 123.621 257.572 123.621C258.292 123.621 258.924 123.742 259.47 123.985C260.025 124.219 260.484 124.557 260.848 124.999C261.221 125.432 261.503 125.957 261.693 126.572C261.884 127.187 261.979 127.868 261.979 128.613V136.998H259.652V128.613C259.652 127.616 259.423 126.845 258.963 126.299C258.513 125.744 257.824 125.467 256.896 125.467C256.212 125.467 255.57 125.632 254.972 125.961C254.383 126.29 253.837 126.737 253.334 127.3V136.998H251.007V123.829H252.398C252.728 123.829 252.931 123.989 253.009 124.31L253.191 125.74ZM274.056 136.998V125.805L272.6 125.636C272.418 125.593 272.266 125.528 272.145 125.441C272.032 125.346 271.976 125.211 271.976 125.038V124.089H274.056V122.815C274.056 122.061 274.16 121.394 274.368 120.813C274.584 120.224 274.888 119.73 275.278 119.331C275.676 118.924 276.153 118.616 276.708 118.408C277.262 118.2 277.886 118.096 278.58 118.096C279.169 118.096 279.711 118.183 280.205 118.356L280.153 119.513C280.135 119.721 280.018 119.834 279.802 119.851C279.594 119.868 279.312 119.877 278.957 119.877C278.558 119.877 278.194 119.929 277.865 120.033C277.544 120.137 277.267 120.306 277.033 120.54C276.799 120.774 276.617 121.082 276.487 121.463C276.365 121.844 276.305 122.317 276.305 122.88V124.089H280.101V125.766H276.383V136.998H274.056ZM287.952 123.621C288.914 123.621 289.781 123.781 290.552 124.102C291.324 124.423 291.982 124.878 292.528 125.467C293.074 126.056 293.49 126.771 293.776 127.612C294.071 128.444 294.218 129.376 294.218 130.407C294.218 131.447 294.071 132.383 293.776 133.215C293.49 134.047 293.074 134.758 292.528 135.347C291.982 135.936 291.324 136.391 290.552 136.712C289.781 137.024 288.914 137.18 287.952 137.18C286.982 137.18 286.106 137.024 285.326 136.712C284.555 136.391 283.896 135.936 283.35 135.347C282.804 134.758 282.384 134.047 282.089 133.215C281.803 132.383 281.66 131.447 281.66 130.407C281.66 129.376 281.803 128.444 282.089 127.612C282.384 126.771 282.804 126.056 283.35 125.467C283.896 124.878 284.555 124.423 285.326 124.102C286.106 123.781 286.982 123.621 287.952 123.621ZM287.952 135.373C289.252 135.373 290.223 134.94 290.864 134.073C291.506 133.198 291.826 131.98 291.826 130.42C291.826 128.851 291.506 127.629 290.864 126.754C290.223 125.879 289.252 125.441 287.952 125.441C287.294 125.441 286.717 125.554 286.223 125.779C285.738 126.004 285.331 126.329 285.001 126.754C284.681 127.179 284.438 127.703 284.273 128.327C284.117 128.942 284.039 129.64 284.039 130.42C284.039 131.98 284.36 133.198 285.001 134.073C285.651 134.94 286.635 135.373 287.952 135.373ZM286.951 120.241C286.951 120.44 286.912 120.627 286.834 120.8C286.756 120.973 286.648 121.125 286.509 121.255C286.371 121.385 286.21 121.489 286.028 121.567C285.855 121.645 285.669 121.684 285.469 121.684C285.279 121.684 285.097 121.645 284.923 121.567C284.75 121.489 284.594 121.385 284.455 121.255C284.325 121.125 284.221 120.973 284.143 120.8C284.065 120.627 284.026 120.44 284.026 120.241C284.026 120.042 284.065 119.851 284.143 119.669C284.221 119.487 284.325 119.331 284.455 119.201C284.594 119.062 284.75 118.954 284.923 118.876C285.097 118.798 285.279 118.759 285.469 118.759C285.669 118.759 285.855 118.798 286.028 118.876C286.21 118.954 286.371 119.062 286.509 119.201C286.648 119.331 286.756 119.487 286.834 119.669C286.912 119.851 286.951 120.042 286.951 120.241ZM291.904 120.241C291.904 120.44 291.865 120.627 291.787 120.8C291.709 120.973 291.601 121.125 291.462 121.255C291.332 121.385 291.176 121.489 290.994 121.567C290.821 121.645 290.635 121.684 290.435 121.684C290.236 121.684 290.045 121.645 289.863 121.567C289.69 121.489 289.538 121.385 289.408 121.255C289.278 121.125 289.174 120.973 289.096 120.8C289.018 120.627 288.979 120.44 288.979 120.241C288.979 120.042 289.018 119.851 289.096 119.669C289.174 119.487 289.278 119.331 289.408 119.201C289.538 119.062 289.69 118.954 289.863 118.876C290.045 118.798 290.236 118.759 290.435 118.759C290.635 118.759 290.821 118.798 290.994 118.876C291.176 118.954 291.332 119.062 291.462 119.201C291.601 119.331 291.709 119.487 291.787 119.669C291.865 119.851 291.904 120.042 291.904 120.241ZM299.87 126.468C300.286 125.567 300.797 124.865 301.404 124.362C302.011 123.851 302.752 123.595 303.627 123.595C303.904 123.595 304.169 123.625 304.42 123.686C304.68 123.747 304.91 123.842 305.109 123.972L304.94 125.701C304.888 125.918 304.758 126.026 304.55 126.026C304.429 126.026 304.251 126 304.017 125.948C303.783 125.896 303.519 125.87 303.224 125.87C302.808 125.87 302.435 125.931 302.106 126.052C301.785 126.173 301.495 126.355 301.235 126.598C300.984 126.832 300.754 127.127 300.546 127.482C300.347 127.829 300.165 128.227 300 128.678V136.998H297.673V123.829H298.999C299.25 123.829 299.424 123.877 299.519 123.972C299.614 124.067 299.679 124.232 299.714 124.466L299.87 126.468ZM315.258 126C315.154 126.191 314.993 126.286 314.777 126.286C314.647 126.286 314.499 126.238 314.335 126.143C314.17 126.048 313.966 125.944 313.724 125.831C313.49 125.71 313.208 125.601 312.879 125.506C312.549 125.402 312.159 125.35 311.709 125.35C311.319 125.35 310.968 125.402 310.656 125.506C310.344 125.601 310.075 125.736 309.85 125.909C309.633 126.082 309.464 126.286 309.343 126.52C309.23 126.745 309.174 126.992 309.174 127.261C309.174 127.599 309.269 127.881 309.46 128.106C309.659 128.331 309.919 128.526 310.24 128.691C310.56 128.856 310.924 129.003 311.332 129.133C311.739 129.254 312.155 129.389 312.58 129.536C313.013 129.675 313.433 129.831 313.841 130.004C314.248 130.177 314.612 130.394 314.933 130.654C315.253 130.914 315.509 131.235 315.7 131.616C315.899 131.989 315.999 132.439 315.999 132.968C315.999 133.575 315.89 134.138 315.674 134.658C315.457 135.169 315.136 135.616 314.712 135.997C314.287 136.37 313.767 136.664 313.152 136.881C312.536 137.098 311.826 137.206 311.02 137.206C310.101 137.206 309.269 137.059 308.524 136.764C307.778 136.461 307.146 136.075 306.626 135.607L307.172 134.723C307.241 134.61 307.323 134.524 307.419 134.463C307.514 134.402 307.635 134.372 307.783 134.372C307.939 134.372 308.103 134.433 308.277 134.554C308.45 134.675 308.658 134.81 308.901 134.957C309.152 135.104 309.455 135.239 309.811 135.36C310.166 135.481 310.608 135.542 311.137 135.542C311.587 135.542 311.982 135.486 312.32 135.373C312.658 135.252 312.939 135.091 313.165 134.892C313.39 134.693 313.555 134.463 313.659 134.203C313.771 133.943 313.828 133.666 313.828 133.371C313.828 133.007 313.728 132.708 313.529 132.474C313.338 132.231 313.082 132.028 312.762 131.863C312.441 131.69 312.073 131.542 311.657 131.421C311.249 131.291 310.829 131.157 310.396 131.018C309.971 130.879 309.551 130.723 309.135 130.55C308.727 130.368 308.363 130.143 308.043 129.874C307.722 129.605 307.462 129.276 307.263 128.886C307.072 128.487 306.977 128.006 306.977 127.443C306.977 126.94 307.081 126.459 307.289 126C307.497 125.532 307.8 125.125 308.199 124.778C308.597 124.423 309.087 124.141 309.668 123.933C310.248 123.725 310.911 123.621 311.657 123.621C312.523 123.621 313.299 123.76 313.984 124.037C314.677 124.306 315.275 124.678 315.778 125.155L315.258 126ZM323.399 137.206C322.359 137.206 321.557 136.916 320.994 136.335C320.439 135.754 320.162 134.918 320.162 133.826V125.766H318.576C318.437 125.766 318.32 125.727 318.225 125.649C318.129 125.562 318.082 125.432 318.082 125.259V124.336L320.24 124.063L320.773 119.994C320.799 119.864 320.855 119.76 320.942 119.682C321.037 119.595 321.158 119.552 321.306 119.552H322.476V124.089H326.285V125.766H322.476V133.67C322.476 134.225 322.61 134.636 322.879 134.905C323.147 135.174 323.494 135.308 323.919 135.308C324.161 135.308 324.369 135.278 324.543 135.217C324.725 135.148 324.881 135.074 325.011 134.996C325.141 134.918 325.249 134.849 325.336 134.788C325.431 134.719 325.513 134.684 325.583 134.684C325.704 134.684 325.812 134.758 325.908 134.905L326.584 136.01C326.185 136.383 325.704 136.677 325.141 136.894C324.577 137.102 323.997 137.206 323.399 137.206ZM336.331 131.07C335.265 131.105 334.355 131.191 333.601 131.33C332.856 131.46 332.245 131.633 331.768 131.85C331.3 132.067 330.958 132.322 330.741 132.617C330.533 132.912 330.429 133.241 330.429 133.605C330.429 133.952 330.485 134.251 330.598 134.502C330.711 134.753 330.862 134.961 331.053 135.126C331.252 135.282 331.482 135.399 331.742 135.477C332.011 135.546 332.297 135.581 332.6 135.581C333.007 135.581 333.38 135.542 333.718 135.464C334.056 135.377 334.372 135.256 334.667 135.1C334.97 134.944 335.256 134.758 335.525 134.541C335.802 134.324 336.071 134.077 336.331 133.8V131.07ZM328.856 125.688C329.584 124.986 330.368 124.462 331.209 124.115C332.05 123.768 332.981 123.595 334.004 123.595C334.741 123.595 335.395 123.716 335.967 123.959C336.539 124.202 337.02 124.54 337.41 124.973C337.8 125.406 338.095 125.931 338.294 126.546C338.493 127.161 338.593 127.837 338.593 128.574V136.998H337.566C337.341 136.998 337.167 136.963 337.046 136.894C336.925 136.816 336.829 136.669 336.76 136.452L336.5 135.204C336.153 135.525 335.815 135.811 335.486 136.062C335.157 136.305 334.81 136.513 334.446 136.686C334.082 136.851 333.692 136.976 333.276 137.063C332.869 137.158 332.414 137.206 331.911 137.206C331.4 137.206 330.919 137.137 330.468 136.998C330.017 136.851 329.623 136.634 329.285 136.348C328.956 136.062 328.691 135.702 328.492 135.269C328.301 134.827 328.206 134.307 328.206 133.709C328.206 133.189 328.349 132.691 328.635 132.214C328.921 131.729 329.385 131.3 330.026 130.927C330.667 130.554 331.504 130.251 332.535 130.017C333.566 129.774 334.832 129.636 336.331 129.601V128.574C336.331 127.551 336.11 126.78 335.668 126.26C335.226 125.731 334.58 125.467 333.731 125.467C333.159 125.467 332.678 125.541 332.288 125.688C331.907 125.827 331.573 125.987 331.287 126.169C331.01 126.342 330.767 126.503 330.559 126.65C330.36 126.789 330.16 126.858 329.961 126.858C329.805 126.858 329.671 126.819 329.558 126.741C329.445 126.654 329.35 126.55 329.272 126.429L328.856 125.688ZM331.131 119.903C331.131 119.539 331.2 119.21 331.339 118.915C331.478 118.62 331.664 118.365 331.898 118.148C332.141 117.931 332.418 117.767 332.73 117.654C333.042 117.533 333.371 117.472 333.718 117.472C334.073 117.472 334.407 117.533 334.719 117.654C335.04 117.767 335.321 117.931 335.564 118.148C335.807 118.365 335.997 118.62 336.136 118.915C336.275 119.21 336.344 119.539 336.344 119.903C336.344 120.258 336.275 120.583 336.136 120.878C335.997 121.173 335.807 121.424 335.564 121.632C335.321 121.84 335.04 122.005 334.719 122.126C334.407 122.239 334.073 122.295 333.718 122.295C333.371 122.295 333.042 122.239 332.73 122.126C332.418 122.005 332.141 121.84 331.898 121.632C331.664 121.424 331.478 121.173 331.339 120.878C331.2 120.583 331.131 120.258 331.131 119.903ZM332.431 119.903C332.431 120.284 332.548 120.596 332.782 120.839C333.016 121.082 333.337 121.203 333.744 121.203C334.134 121.203 334.446 121.082 334.68 120.839C334.923 120.596 335.044 120.284 335.044 119.903C335.044 119.513 334.923 119.197 334.68 118.954C334.446 118.711 334.134 118.59 333.744 118.59C333.337 118.59 333.016 118.711 332.782 118.954C332.548 119.197 332.431 119.513 332.431 119.903ZM344.835 126.468C345.251 125.567 345.762 124.865 346.369 124.362C346.976 123.851 347.717 123.595 348.592 123.595C348.869 123.595 349.134 123.625 349.385 123.686C349.645 123.747 349.875 123.842 350.074 123.972L349.905 125.701C349.853 125.918 349.723 126.026 349.515 126.026C349.394 126.026 349.216 126 348.982 125.948C348.748 125.896 348.484 125.87 348.189 125.87C347.773 125.87 347.4 125.931 347.071 126.052C346.75 126.173 346.46 126.355 346.2 126.598C345.949 126.832 345.719 127.127 345.511 127.482C345.312 127.829 345.13 128.227 344.965 128.678V136.998H342.638V123.829H343.964C344.215 123.829 344.389 123.877 344.484 123.972C344.579 124.067 344.644 124.232 344.679 124.466L344.835 126.468ZM367.822 126.962C367.389 126.381 366.921 125.978 366.418 125.753C365.916 125.519 365.352 125.402 364.728 125.402C363.506 125.402 362.566 125.84 361.907 126.715C361.249 127.59 360.919 128.838 360.919 130.459C360.919 131.317 360.993 132.054 361.14 132.669C361.288 133.276 361.504 133.778 361.79 134.177C362.076 134.567 362.427 134.853 362.843 135.035C363.259 135.217 363.732 135.308 364.26 135.308C365.023 135.308 365.686 135.135 366.249 134.788C366.821 134.441 367.346 133.952 367.822 133.319V126.962ZM370.136 117.849V136.998H368.758C368.429 136.998 368.221 136.838 368.134 136.517L367.926 134.918C367.363 135.594 366.722 136.14 366.002 136.556C365.283 136.972 364.451 137.18 363.506 137.18C362.752 137.18 362.068 137.037 361.452 136.751C360.837 136.456 360.313 136.027 359.879 135.464C359.446 134.901 359.112 134.199 358.878 133.358C358.644 132.517 358.527 131.551 358.527 130.459C358.527 129.488 358.657 128.587 358.917 127.755C359.177 126.914 359.55 126.186 360.035 125.571C360.521 124.956 361.114 124.475 361.816 124.128C362.527 123.773 363.324 123.595 364.208 123.595C365.014 123.595 365.703 123.734 366.275 124.011C366.856 124.28 367.372 124.657 367.822 125.142V117.849H370.136ZM383.125 128.977C383.125 128.44 383.047 127.95 382.891 127.508C382.744 127.057 382.523 126.672 382.228 126.351C381.942 126.022 381.591 125.77 381.175 125.597C380.759 125.415 380.287 125.324 379.758 125.324C378.649 125.324 377.769 125.649 377.119 126.299C376.478 126.94 376.079 127.833 375.923 128.977H383.125ZM384.997 135.152C384.711 135.499 384.369 135.802 383.97 136.062C383.572 136.313 383.143 136.521 382.683 136.686C382.233 136.851 381.765 136.972 381.279 137.05C380.794 137.137 380.313 137.18 379.836 137.18C378.926 137.18 378.086 137.028 377.314 136.725C376.552 136.413 375.889 135.962 375.325 135.373C374.771 134.775 374.337 134.038 374.025 133.163C373.713 132.288 373.557 131.282 373.557 130.147C373.557 129.228 373.696 128.37 373.973 127.573C374.259 126.776 374.667 126.087 375.195 125.506C375.724 124.917 376.37 124.457 377.132 124.128C377.895 123.79 378.753 123.621 379.706 123.621C380.495 123.621 381.223 123.755 381.89 124.024C382.566 124.284 383.147 124.665 383.632 125.168C384.126 125.662 384.512 126.277 384.789 127.014C385.067 127.742 385.205 128.574 385.205 129.51C385.205 129.874 385.166 130.117 385.088 130.238C385.01 130.359 384.863 130.42 384.646 130.42H375.845C375.871 131.252 375.984 131.976 376.183 132.591C376.391 133.206 376.677 133.722 377.041 134.138C377.405 134.545 377.839 134.853 378.341 135.061C378.844 135.26 379.407 135.36 380.031 135.36C380.612 135.36 381.11 135.295 381.526 135.165C381.951 135.026 382.315 134.879 382.618 134.723C382.922 134.567 383.173 134.424 383.372 134.294C383.58 134.155 383.758 134.086 383.905 134.086C384.096 134.086 384.243 134.16 384.347 134.307L384.997 135.152ZM399.783 137.206C398.743 137.206 397.941 136.916 397.378 136.335C396.823 135.754 396.546 134.918 396.546 133.826V125.766H394.96C394.821 125.766 394.704 125.727 394.609 125.649C394.514 125.562 394.466 125.432 394.466 125.259V124.336L396.624 124.063L397.157 119.994C397.183 119.864 397.239 119.76 397.326 119.682C397.421 119.595 397.543 119.552 397.69 119.552H398.86V124.089H402.669V125.766H398.86V133.67C398.86 134.225 398.994 134.636 399.263 134.905C399.532 135.174 399.878 135.308 400.303 135.308C400.546 135.308 400.754 135.278 400.927 135.217C401.109 135.148 401.265 135.074 401.395 134.996C401.525 134.918 401.633 134.849 401.72 134.788C401.815 134.719 401.898 134.684 401.967 134.684C402.088 134.684 402.197 134.758 402.292 134.905L402.968 136.01C402.569 136.383 402.088 136.677 401.525 136.894C400.962 137.102 400.381 137.206 399.783 137.206ZM414.316 128.977C414.316 128.44 414.238 127.95 414.082 127.508C413.935 127.057 413.714 126.672 413.419 126.351C413.133 126.022 412.782 125.77 412.366 125.597C411.95 125.415 411.478 125.324 410.949 125.324C409.84 125.324 408.96 125.649 408.31 126.299C407.669 126.94 407.27 127.833 407.114 128.977H414.316ZM416.188 135.152C415.902 135.499 415.56 135.802 415.161 136.062C414.762 136.313 414.333 136.521 413.874 136.686C413.423 136.851 412.955 136.972 412.47 137.05C411.985 137.137 411.504 137.18 411.027 137.18C410.117 137.18 409.276 137.028 408.505 136.725C407.742 136.413 407.079 135.962 406.516 135.373C405.961 134.775 405.528 134.038 405.216 133.163C404.904 132.288 404.748 131.282 404.748 130.147C404.748 129.228 404.887 128.37 405.164 127.573C405.45 126.776 405.857 126.087 406.386 125.506C406.915 124.917 407.56 124.457 408.323 124.128C409.086 123.79 409.944 123.621 410.897 123.621C411.686 123.621 412.414 123.755 413.081 124.024C413.757 124.284 414.338 124.665 414.823 125.168C415.317 125.662 415.703 126.277 415.98 127.014C416.257 127.742 416.396 128.574 416.396 129.51C416.396 129.874 416.357 130.117 416.279 130.238C416.201 130.359 416.054 130.42 415.837 130.42H407.036C407.062 131.252 407.175 131.976 407.374 132.591C407.582 133.206 407.868 133.722 408.232 134.138C408.596 134.545 409.029 134.853 409.532 135.061C410.035 135.26 410.598 135.36 411.222 135.36C411.803 135.36 412.301 135.295 412.717 135.165C413.142 135.026 413.506 134.879 413.809 134.723C414.112 134.567 414.364 134.424 414.563 134.294C414.771 134.155 414.949 134.086 415.096 134.086C415.287 134.086 415.434 134.16 415.538 134.307L416.188 135.152ZM422.085 117.849V129.12H422.683C422.857 129.12 423 129.098 423.112 129.055C423.234 129.003 423.359 128.903 423.489 128.756L427.649 124.297C427.771 124.15 427.896 124.037 428.026 123.959C428.165 123.872 428.347 123.829 428.572 123.829H430.665L425.816 128.99C425.582 129.285 425.331 129.514 425.062 129.679C425.218 129.783 425.357 129.904 425.478 130.043C425.608 130.173 425.73 130.325 425.842 130.498L430.99 136.998H428.923C428.724 136.998 428.551 136.968 428.403 136.907C428.265 136.838 428.143 136.716 428.039 136.543L423.71 131.148C423.58 130.966 423.45 130.849 423.32 130.797C423.199 130.736 423.008 130.706 422.748 130.706H422.085V136.998H419.758V117.849H422.085ZM435.666 125.74C435.952 125.419 436.255 125.129 436.576 124.869C436.896 124.609 437.234 124.388 437.59 124.206C437.954 124.015 438.335 123.872 438.734 123.777C439.141 123.673 439.579 123.621 440.047 123.621C440.766 123.621 441.399 123.742 441.945 123.985C442.499 124.219 442.959 124.557 443.323 124.999C443.695 125.432 443.977 125.957 444.168 126.572C444.358 127.187 444.454 127.868 444.454 128.613V136.998H442.127V128.613C442.127 127.616 441.897 126.845 441.438 126.299C440.987 125.744 440.298 125.467 439.371 125.467C438.686 125.467 438.045 125.632 437.447 125.961C436.857 126.29 436.311 126.737 435.809 127.3V136.998H433.482V123.829H434.873C435.202 123.829 435.406 123.989 435.484 124.31L435.666 125.74ZM450.944 123.829V136.998H448.63V123.829H450.944ZM451.438 119.695C451.438 119.92 451.39 120.133 451.295 120.332C451.208 120.523 451.087 120.696 450.931 120.852C450.783 120.999 450.606 121.116 450.398 121.203C450.198 121.29 449.986 121.333 449.761 121.333C449.535 121.333 449.323 121.29 449.124 121.203C448.933 121.116 448.764 120.999 448.617 120.852C448.469 120.696 448.352 120.523 448.266 120.332C448.179 120.133 448.136 119.92 448.136 119.695C448.136 119.47 448.179 119.257 448.266 119.058C448.352 118.85 448.469 118.672 448.617 118.525C448.764 118.369 448.933 118.248 449.124 118.161C449.323 118.074 449.535 118.031 449.761 118.031C449.986 118.031 450.198 118.074 450.398 118.161C450.606 118.248 450.783 118.369 450.931 118.525C451.087 118.672 451.208 118.85 451.295 119.058C451.39 119.257 451.438 119.47 451.438 119.695ZM462.936 126C462.832 126.191 462.671 126.286 462.455 126.286C462.325 126.286 462.177 126.238 462.013 126.143C461.848 126.048 461.644 125.944 461.402 125.831C461.168 125.71 460.886 125.601 460.557 125.506C460.227 125.402 459.837 125.35 459.387 125.35C458.997 125.35 458.646 125.402 458.334 125.506C458.022 125.601 457.753 125.736 457.528 125.909C457.311 126.082 457.142 126.286 457.021 126.52C456.908 126.745 456.852 126.992 456.852 127.261C456.852 127.599 456.947 127.881 457.138 128.106C457.337 128.331 457.597 128.526 457.918 128.691C458.238 128.856 458.602 129.003 459.01 129.133C459.417 129.254 459.833 129.389 460.258 129.536C460.691 129.675 461.111 129.831 461.519 130.004C461.926 130.177 462.29 130.394 462.611 130.654C462.931 130.914 463.187 131.235 463.378 131.616C463.577 131.989 463.677 132.439 463.677 132.968C463.677 133.575 463.568 134.138 463.352 134.658C463.135 135.169 462.814 135.616 462.39 135.997C461.965 136.37 461.445 136.664 460.83 136.881C460.214 137.098 459.504 137.206 458.698 137.206C457.779 137.206 456.947 137.059 456.202 136.764C455.456 136.461 454.824 136.075 454.304 135.607L454.85 134.723C454.919 134.61 455.001 134.524 455.097 134.463C455.192 134.402 455.313 134.372 455.461 134.372C455.617 134.372 455.781 134.433 455.955 134.554C456.128 134.675 456.336 134.81 456.579 134.957C456.83 135.104 457.133 135.239 457.489 135.36C457.844 135.481 458.286 135.542 458.815 135.542C459.265 135.542 459.66 135.486 459.998 135.373C460.336 135.252 460.617 135.091 460.843 134.892C461.068 134.693 461.233 134.463 461.337 134.203C461.449 133.943 461.506 133.666 461.506 133.371C461.506 133.007 461.406 132.708 461.207 132.474C461.016 132.231 460.76 132.028 460.44 131.863C460.119 131.69 459.751 131.542 459.335 131.421C458.927 131.291 458.507 131.157 458.074 131.018C457.649 130.879 457.229 130.723 456.813 130.55C456.405 130.368 456.041 130.143 455.721 129.874C455.4 129.605 455.14 129.276 454.941 128.886C454.75 128.487 454.655 128.006 454.655 127.443C454.655 126.94 454.759 126.459 454.967 126C455.175 125.532 455.478 125.125 455.877 124.778C456.275 124.423 456.765 124.141 457.346 123.933C457.926 123.725 458.589 123.621 459.335 123.621C460.201 123.621 460.977 123.76 461.662 124.037C462.355 124.306 462.953 124.678 463.456 125.155L462.936 126ZM469.361 117.849V129.12H469.959C470.132 129.12 470.275 129.098 470.388 129.055C470.509 129.003 470.635 128.903 470.765 128.756L474.925 124.297C475.046 124.15 475.172 124.037 475.302 123.959C475.44 123.872 475.622 123.829 475.848 123.829H477.941L473.092 128.99C472.858 129.285 472.606 129.514 472.338 129.679C472.494 129.783 472.632 129.904 472.754 130.043C472.884 130.173 473.005 130.325 473.118 130.498L478.266 136.998H476.199C475.999 136.998 475.826 136.968 475.679 136.907C475.54 136.838 475.419 136.716 475.315 136.543L470.986 131.148C470.856 130.966 470.726 130.849 470.596 130.797C470.474 130.736 470.284 130.706 470.024 130.706H469.361V136.998H467.034V117.849H469.361ZM487.894 131.07C486.828 131.105 485.918 131.191 485.164 131.33C484.418 131.46 483.807 131.633 483.331 131.85C482.863 132.067 482.52 132.322 482.304 132.617C482.096 132.912 481.992 133.241 481.992 133.605C481.992 133.952 482.048 134.251 482.161 134.502C482.273 134.753 482.425 134.961 482.616 135.126C482.815 135.282 483.045 135.399 483.305 135.477C483.573 135.546 483.859 135.581 484.163 135.581C484.57 135.581 484.943 135.542 485.281 135.464C485.619 135.377 485.935 135.256 486.23 135.1C486.533 134.944 486.819 134.758 487.088 134.541C487.365 134.324 487.634 134.077 487.894 133.8V131.07ZM480.419 125.688C481.147 124.986 481.931 124.462 482.772 124.115C483.612 123.768 484.544 123.595 485.567 123.595C486.303 123.595 486.958 123.716 487.53 123.959C488.102 124.202 488.583 124.54 488.973 124.973C489.363 125.406 489.657 125.931 489.857 126.546C490.056 127.161 490.156 127.837 490.156 128.574V136.998H489.129C488.903 136.998 488.73 136.963 488.609 136.894C488.487 136.816 488.392 136.669 488.323 136.452L488.063 135.204C487.716 135.525 487.378 135.811 487.049 136.062C486.719 136.305 486.373 136.513 486.009 136.686C485.645 136.851 485.255 136.976 484.839 137.063C484.431 137.158 483.976 137.206 483.474 137.206C482.962 137.206 482.481 137.137 482.031 136.998C481.58 136.851 481.186 136.634 480.848 136.348C480.518 136.062 480.254 135.702 480.055 135.269C479.864 134.827 479.769 134.307 479.769 133.709C479.769 133.189 479.912 132.691 480.198 132.214C480.484 131.729 480.947 131.3 481.589 130.927C482.23 130.554 483.066 130.251 484.098 130.017C485.129 129.774 486.394 129.636 487.894 129.601V128.574C487.894 127.551 487.673 126.78 487.231 126.26C486.789 125.731 486.143 125.467 485.294 125.467C484.722 125.467 484.241 125.541 483.851 125.688C483.469 125.827 483.136 125.987 482.85 126.169C482.572 126.342 482.33 126.503 482.122 126.65C481.922 126.789 481.723 126.858 481.524 126.858C481.368 126.858 481.233 126.819 481.121 126.741C481.008 126.654 480.913 126.55 480.835 126.429L480.419 125.688ZM503.7 133.826C504.125 134.398 504.588 134.801 505.091 135.035C505.602 135.269 506.161 135.386 506.768 135.386C508.007 135.386 508.956 134.948 509.615 134.073C510.274 133.198 510.603 131.893 510.603 130.16C510.603 128.548 510.308 127.365 509.719 126.611C509.138 125.848 508.306 125.467 507.223 125.467C506.469 125.467 505.81 125.64 505.247 125.987C504.692 126.334 504.177 126.823 503.7 127.456V133.826ZM503.7 125.727C504.255 125.086 504.879 124.574 505.572 124.193C506.274 123.812 507.08 123.621 507.99 123.621C508.761 123.621 509.455 123.768 510.07 124.063C510.694 124.358 511.223 124.787 511.656 125.35C512.089 125.905 512.419 126.581 512.644 127.378C512.878 128.175 512.995 129.072 512.995 130.069C512.995 131.135 512.865 132.106 512.605 132.981C512.345 133.856 511.968 134.606 511.474 135.23C510.989 135.845 510.395 136.326 509.693 136.673C508.991 137.011 508.202 137.18 507.327 137.18C506.46 137.18 505.728 137.02 505.13 136.699C504.541 136.37 504.025 135.906 503.583 135.308L503.466 136.504C503.397 136.833 503.197 136.998 502.868 136.998H501.373V117.849H503.7V125.727ZM518.886 123.829V136.998H516.572V123.829H518.886ZM519.38 119.695C519.38 119.92 519.332 120.133 519.237 120.332C519.15 120.523 519.029 120.696 518.873 120.852C518.725 120.999 518.548 121.116 518.34 121.203C518.14 121.29 517.928 121.333 517.703 121.333C517.477 121.333 517.265 121.29 517.066 121.203C516.875 121.116 516.706 120.999 516.559 120.852C516.411 120.696 516.294 120.523 516.208 120.332C516.121 120.133 516.078 119.92 516.078 119.695C516.078 119.47 516.121 119.257 516.208 119.058C516.294 118.85 516.411 118.672 516.559 118.525C516.706 118.369 516.875 118.248 517.066 118.161C517.265 118.074 517.477 118.031 517.703 118.031C517.928 118.031 518.14 118.074 518.34 118.161C518.548 118.248 518.725 118.369 518.873 118.525C519.029 118.672 519.15 118.85 519.237 119.058C519.332 119.257 519.38 119.47 519.38 119.695ZM527.251 137.206C526.211 137.206 525.409 136.916 524.846 136.335C524.291 135.754 524.014 134.918 524.014 133.826V125.766H522.428C522.289 125.766 522.172 125.727 522.077 125.649C521.982 125.562 521.934 125.432 521.934 125.259V124.336L524.092 124.063L524.625 119.994C524.651 119.864 524.707 119.76 524.794 119.682C524.889 119.595 525.011 119.552 525.158 119.552H526.328V124.089H530.137V125.766H526.328V133.67C526.328 134.225 526.462 134.636 526.731 134.905C527 135.174 527.346 135.308 527.771 135.308C528.014 135.308 528.222 135.278 528.395 135.217C528.577 135.148 528.733 135.074 528.863 134.996C528.993 134.918 529.101 134.849 529.188 134.788C529.283 134.719 529.366 134.684 529.435 134.684C529.556 134.684 529.665 134.758 529.76 134.905L530.436 136.01C530.037 136.383 529.556 136.677 528.993 136.894C528.43 137.102 527.849 137.206 527.251 137.206ZM540.183 131.07C539.117 131.105 538.207 131.191 537.453 131.33C536.708 131.46 536.097 131.633 535.62 131.85C535.152 132.067 534.81 132.322 534.593 132.617C534.385 132.912 534.281 133.241 534.281 133.605C534.281 133.952 534.338 134.251 534.45 134.502C534.563 134.753 534.715 134.961 534.905 135.126C535.105 135.282 535.334 135.399 535.594 135.477C535.863 135.546 536.149 135.581 536.452 135.581C536.86 135.581 537.232 135.542 537.57 135.464C537.908 135.377 538.225 135.256 538.519 135.1C538.823 134.944 539.109 134.758 539.377 134.541C539.655 134.324 539.923 134.077 540.183 133.8V131.07ZM532.708 125.688C533.436 124.986 534.221 124.462 535.061 124.115C535.902 123.768 536.834 123.595 537.856 123.595C538.593 123.595 539.247 123.716 539.819 123.959C540.391 124.202 540.872 124.54 541.262 124.973C541.652 125.406 541.947 125.931 542.146 126.546C542.346 127.161 542.445 127.837 542.445 128.574V136.998H541.418C541.193 136.998 541.02 136.963 540.898 136.894C540.777 136.816 540.682 136.669 540.612 136.452L540.352 135.204C540.006 135.525 539.668 135.811 539.338 136.062C539.009 136.305 538.662 136.513 538.298 136.686C537.934 136.851 537.544 136.976 537.128 137.063C536.721 137.158 536.266 137.206 535.763 137.206C535.252 137.206 534.771 137.137 534.32 136.998C533.87 136.851 533.475 136.634 533.137 136.348C532.808 136.062 532.544 135.702 532.344 135.269C532.154 134.827 532.058 134.307 532.058 133.709C532.058 133.189 532.201 132.691 532.487 132.214C532.773 131.729 533.237 131.3 533.878 130.927C534.52 130.554 535.356 130.251 536.387 130.017C537.419 129.774 538.684 129.636 540.183 129.601V128.574C540.183 127.551 539.962 126.78 539.52 126.26C539.078 125.731 538.433 125.467 537.583 125.467C537.011 125.467 536.53 125.541 536.14 125.688C535.759 125.827 535.425 125.987 535.139 126.169C534.862 126.342 534.619 126.503 534.411 126.65C534.212 126.789 534.013 126.858 533.813 126.858C533.657 126.858 533.523 126.819 533.41 126.741C533.298 126.654 533.202 126.55 533.124 126.429L532.708 125.688ZM548.687 126.468C549.103 125.567 549.614 124.865 550.221 124.362C550.828 123.851 551.569 123.595 552.444 123.595C552.721 123.595 552.986 123.625 553.237 123.686C553.497 123.747 553.727 123.842 553.926 123.972L553.757 125.701C553.705 125.918 553.575 126.026 553.367 126.026C553.246 126.026 553.068 126 552.834 125.948C552.6 125.896 552.336 125.87 552.041 125.87C551.625 125.87 551.252 125.931 550.923 126.052C550.602 126.173 550.312 126.355 550.052 126.598C549.801 126.832 549.571 127.127 549.363 127.482C549.164 127.829 548.982 128.227 548.817 128.678V136.998H546.49V123.829H547.816C548.067 123.829 548.241 123.877 548.336 123.972C548.431 124.067 548.496 124.232 548.531 124.466L548.687 126.468ZM558.665 125.74C558.951 125.419 559.254 125.129 559.575 124.869C559.895 124.609 560.233 124.388 560.589 124.206C560.953 124.015 561.334 123.872 561.733 123.777C562.14 123.673 562.578 123.621 563.046 123.621C563.765 123.621 564.398 123.742 564.944 123.985C565.498 124.219 565.958 124.557 566.322 124.999C566.694 125.432 566.976 125.957 567.167 126.572C567.357 127.187 567.453 127.868 567.453 128.613V136.998H565.126V128.613C565.126 127.616 564.896 126.845 564.437 126.299C563.986 125.744 563.297 125.467 562.37 125.467C561.685 125.467 561.044 125.632 560.446 125.961C559.856 126.29 559.31 126.737 558.808 127.3V136.998H556.481V123.829H557.872C558.201 123.829 558.405 123.989 558.483 124.31L558.665 125.74ZM578.636 131.07C577.57 131.105 576.66 131.191 575.906 131.33C575.161 131.46 574.55 131.633 574.073 131.85C573.605 132.067 573.263 132.322 573.046 132.617C572.838 132.912 572.734 133.241 572.734 133.605C572.734 133.952 572.79 134.251 572.903 134.502C573.016 134.753 573.167 134.961 573.358 135.126C573.557 135.282 573.787 135.399 574.047 135.477C574.316 135.546 574.602 135.581 574.905 135.581C575.312 135.581 575.685 135.542 576.023 135.464C576.361 135.377 576.677 135.256 576.972 135.1C577.275 134.944 577.561 134.758 577.83 134.541C578.107 134.324 578.376 134.077 578.636 133.8V131.07ZM571.161 125.688C571.889 124.986 572.673 124.462 573.514 124.115C574.355 123.768 575.286 123.595 576.309 123.595C577.046 123.595 577.7 123.716 578.272 123.959C578.844 124.202 579.325 124.54 579.715 124.973C580.105 125.406 580.4 125.931 580.599 126.546C580.798 127.161 580.898 127.837 580.898 128.574V136.998H579.871C579.646 136.998 579.472 136.963 579.351 136.894C579.23 136.816 579.134 136.669 579.065 136.452L578.805 135.204C578.458 135.525 578.12 135.811 577.791 136.062C577.462 136.305 577.115 136.513 576.751 136.686C576.387 136.851 575.997 136.976 575.581 137.063C575.174 137.158 574.719 137.206 574.216 137.206C573.705 137.206 573.224 137.137 572.773 136.998C572.322 136.851 571.928 136.634 571.59 136.348C571.261 136.062 570.996 135.702 570.797 135.269C570.606 134.827 570.511 134.307 570.511 133.709C570.511 133.189 570.654 132.691 570.94 132.214C571.226 131.729 571.69 131.3 572.331 130.927C572.972 130.554 573.809 130.251 574.84 130.017C575.871 129.774 577.137 129.636 578.636 129.601V128.574C578.636 127.551 578.415 126.78 577.973 126.26C577.531 125.731 576.885 125.467 576.036 125.467C575.464 125.467 574.983 125.541 574.593 125.688C574.212 125.827 573.878 125.987 573.592 126.169C573.315 126.342 573.072 126.503 572.864 126.65C572.665 126.789 572.465 126.858 572.266 126.858C572.11 126.858 571.976 126.819 571.863 126.741C571.75 126.654 571.655 126.55 571.577 126.429L571.161 125.688ZM195.382 155.621C196.344 155.621 197.211 155.781 197.982 156.102C198.753 156.423 199.412 156.878 199.958 157.467C200.504 158.056 200.92 158.771 201.206 159.612C201.501 160.444 201.648 161.376 201.648 162.407C201.648 163.447 201.501 164.383 201.206 165.215C200.92 166.047 200.504 166.758 199.958 167.347C199.412 167.936 198.753 168.391 197.982 168.712C197.211 169.024 196.344 169.18 195.382 169.18C194.411 169.18 193.536 169.024 192.756 168.712C191.985 168.391 191.326 167.936 190.78 167.347C190.234 166.758 189.814 166.047 189.519 165.215C189.233 164.383 189.09 163.447 189.09 162.407C189.09 161.376 189.233 160.444 189.519 159.612C189.814 158.771 190.234 158.056 190.78 157.467C191.326 156.878 191.985 156.423 192.756 156.102C193.536 155.781 194.411 155.621 195.382 155.621ZM195.382 167.373C196.682 167.373 197.653 166.94 198.294 166.073C198.935 165.198 199.256 163.98 199.256 162.42C199.256 160.851 198.935 159.629 198.294 158.754C197.653 157.879 196.682 157.441 195.382 157.441C194.723 157.441 194.147 157.554 193.653 157.779C193.168 158.004 192.76 158.329 192.431 158.754C192.11 159.179 191.868 159.703 191.703 160.327C191.547 160.942 191.469 161.64 191.469 162.42C191.469 163.98 191.79 165.198 192.431 166.073C193.081 166.94 194.065 167.373 195.382 167.373ZM214.268 158.169C214.199 158.264 214.129 158.338 214.06 158.39C213.991 158.442 213.895 158.468 213.774 158.468C213.644 158.468 213.501 158.416 213.345 158.312C213.189 158.199 212.994 158.078 212.76 157.948C212.535 157.818 212.253 157.701 211.915 157.597C211.586 157.484 211.178 157.428 210.693 157.428C210.043 157.428 209.471 157.545 208.977 157.779C208.483 158.004 208.067 158.334 207.729 158.767C207.4 159.2 207.148 159.725 206.975 160.34C206.81 160.955 206.728 161.644 206.728 162.407C206.728 163.204 206.819 163.915 207.001 164.539C207.183 165.154 207.439 165.674 207.768 166.099C208.106 166.515 208.509 166.836 208.977 167.061C209.454 167.278 209.987 167.386 210.576 167.386C211.139 167.386 211.603 167.321 211.967 167.191C212.331 167.052 212.63 166.901 212.864 166.736C213.107 166.571 213.306 166.424 213.462 166.294C213.627 166.155 213.787 166.086 213.943 166.086C214.134 166.086 214.281 166.16 214.385 166.307L215.035 167.152C214.749 167.507 214.424 167.811 214.06 168.062C213.696 168.313 213.302 168.526 212.877 168.699C212.461 168.864 212.023 168.985 211.564 169.063C211.105 169.141 210.637 169.18 210.16 169.18C209.337 169.18 208.57 169.028 207.859 168.725C207.157 168.422 206.546 167.984 206.026 167.412C205.506 166.831 205.099 166.121 204.804 165.28C204.509 164.439 204.362 163.482 204.362 162.407C204.362 161.428 204.496 160.522 204.765 159.69C205.042 158.858 205.441 158.143 205.961 157.545C206.49 156.938 207.135 156.466 207.898 156.128C208.669 155.79 209.553 155.621 210.55 155.621C211.477 155.621 212.292 155.773 212.994 156.076C213.705 156.371 214.333 156.791 214.879 157.337L214.268 158.169ZM220.366 149.849V161.12H220.964C221.137 161.12 221.28 161.098 221.393 161.055C221.514 161.003 221.64 160.903 221.77 160.756L225.93 156.297C226.051 156.15 226.177 156.037 226.307 155.959C226.446 155.872 226.628 155.829 226.853 155.829H228.946L224.097 160.99C223.863 161.285 223.612 161.514 223.343 161.679C223.499 161.783 223.638 161.904 223.759 162.043C223.889 162.173 224.01 162.325 224.123 162.498L229.271 168.998H227.204C227.005 168.998 226.831 168.968 226.684 168.907C226.545 168.838 226.424 168.716 226.32 168.543L221.991 163.148C221.861 162.966 221.731 162.849 221.601 162.797C221.48 162.736 221.289 162.706 221.029 162.706H220.366V168.998H218.039V149.849H220.366ZM239.432 158C239.328 158.191 239.168 158.286 238.951 158.286C238.821 158.286 238.674 158.238 238.509 158.143C238.344 158.048 238.141 157.944 237.898 157.831C237.664 157.71 237.382 157.601 237.053 157.506C236.724 157.402 236.334 157.35 235.883 157.35C235.493 157.35 235.142 157.402 234.83 157.506C234.518 157.601 234.249 157.736 234.024 157.909C233.807 158.082 233.638 158.286 233.517 158.52C233.404 158.745 233.348 158.992 233.348 159.261C233.348 159.599 233.443 159.881 233.634 160.106C233.833 160.331 234.093 160.526 234.414 160.691C234.735 160.856 235.099 161.003 235.506 161.133C235.913 161.254 236.329 161.389 236.754 161.536C237.187 161.675 237.608 161.831 238.015 162.004C238.422 162.177 238.786 162.394 239.107 162.654C239.428 162.914 239.683 163.235 239.874 163.616C240.073 163.989 240.173 164.439 240.173 164.968C240.173 165.575 240.065 166.138 239.848 166.658C239.631 167.169 239.311 167.616 238.886 167.997C238.461 168.37 237.941 168.664 237.326 168.881C236.711 169.098 236 169.206 235.194 169.206C234.275 169.206 233.443 169.059 232.698 168.764C231.953 168.461 231.32 168.075 230.8 167.607L231.346 166.723C231.415 166.61 231.498 166.524 231.593 166.463C231.688 166.402 231.81 166.372 231.957 166.372C232.113 166.372 232.278 166.433 232.451 166.554C232.624 166.675 232.832 166.81 233.075 166.957C233.326 167.104 233.63 167.239 233.985 167.36C234.34 167.481 234.782 167.542 235.311 167.542C235.762 167.542 236.156 167.486 236.494 167.373C236.832 167.252 237.114 167.091 237.339 166.892C237.564 166.693 237.729 166.463 237.833 166.203C237.946 165.943 238.002 165.666 238.002 165.371C238.002 165.007 237.902 164.708 237.703 164.474C237.512 164.231 237.257 164.028 236.936 163.863C236.615 163.69 236.247 163.542 235.831 163.421C235.424 163.291 235.003 163.157 234.57 163.018C234.145 162.879 233.725 162.723 233.309 162.55C232.902 162.368 232.538 162.143 232.217 161.874C231.896 161.605 231.636 161.276 231.437 160.886C231.246 160.487 231.151 160.006 231.151 159.443C231.151 158.94 231.255 158.459 231.463 158C231.671 157.532 231.974 157.125 232.373 156.778C232.772 156.423 233.261 156.141 233.842 155.933C234.423 155.725 235.086 155.621 235.831 155.621C236.698 155.621 237.473 155.76 238.158 156.037C238.851 156.306 239.449 156.678 239.952 157.155L239.432 158ZM250.667 163.07C249.601 163.105 248.691 163.191 247.937 163.33C247.192 163.46 246.581 163.633 246.104 163.85C245.636 164.067 245.294 164.322 245.077 164.617C244.869 164.912 244.765 165.241 244.765 165.605C244.765 165.952 244.822 166.251 244.934 166.502C245.047 166.753 245.199 166.961 245.389 167.126C245.589 167.282 245.818 167.399 246.078 167.477C246.347 167.546 246.633 167.581 246.936 167.581C247.344 167.581 247.716 167.542 248.054 167.464C248.392 167.377 248.709 167.256 249.003 167.1C249.307 166.944 249.593 166.758 249.861 166.541C250.139 166.324 250.407 166.077 250.667 165.8V163.07ZM243.192 157.688C243.92 156.986 244.705 156.462 245.545 156.115C246.386 155.768 247.318 155.595 248.34 155.595C249.077 155.595 249.731 155.716 250.303 155.959C250.875 156.202 251.356 156.54 251.746 156.973C252.136 157.406 252.431 157.931 252.63 158.546C252.83 159.161 252.929 159.837 252.929 160.574V168.998H251.902C251.677 168.998 251.504 168.963 251.382 168.894C251.261 168.816 251.166 168.669 251.096 168.452L250.836 167.204C250.49 167.525 250.152 167.811 249.822 168.062C249.493 168.305 249.146 168.513 248.782 168.686C248.418 168.851 248.028 168.976 247.612 169.063C247.205 169.158 246.75 169.206 246.247 169.206C245.736 169.206 245.255 169.137 244.804 168.998C244.354 168.851 243.959 168.634 243.621 168.348C243.292 168.062 243.028 167.702 242.828 167.269C242.638 166.827 242.542 166.307 242.542 165.709C242.542 165.189 242.685 164.691 242.971 164.214C243.257 163.729 243.721 163.3 244.362 162.927C245.004 162.554 245.84 162.251 246.871 162.017C247.903 161.774 249.168 161.636 250.667 161.601V160.574C250.667 159.551 250.446 158.78 250.004 158.26C249.562 157.731 248.917 157.467 248.067 157.467C247.495 157.467 247.014 157.541 246.624 157.688C246.243 157.827 245.909 157.987 245.623 158.169C245.346 158.342 245.103 158.503 244.895 158.65C244.696 158.789 244.497 158.858 244.297 158.858C244.141 158.858 244.007 158.819 243.894 158.741C243.782 158.654 243.686 158.55 243.608 158.429L243.192 157.688ZM245.467 151.903C245.467 151.539 245.537 151.21 245.675 150.915C245.814 150.62 246 150.365 246.234 150.148C246.477 149.931 246.754 149.767 247.066 149.654C247.378 149.533 247.708 149.472 248.054 149.472C248.41 149.472 248.743 149.533 249.055 149.654C249.376 149.767 249.658 149.931 249.9 150.148C250.143 150.365 250.334 150.62 250.472 150.915C250.611 151.21 250.68 151.539 250.68 151.903C250.68 152.258 250.611 152.583 250.472 152.878C250.334 153.173 250.143 153.424 249.9 153.632C249.658 153.84 249.376 154.005 249.055 154.126C248.743 154.239 248.41 154.295 248.054 154.295C247.708 154.295 247.378 154.239 247.066 154.126C246.754 154.005 246.477 153.84 246.234 153.632C246 153.424 245.814 153.173 245.675 152.878C245.537 152.583 245.467 152.258 245.467 151.903ZM246.767 151.903C246.767 152.284 246.884 152.596 247.118 152.839C247.352 153.082 247.673 153.203 248.08 153.203C248.47 153.203 248.782 153.082 249.016 152.839C249.259 152.596 249.38 152.284 249.38 151.903C249.38 151.513 249.259 151.197 249.016 150.954C248.782 150.711 248.47 150.59 248.08 150.59C247.673 150.59 247.352 150.711 247.118 150.954C246.884 151.197 246.767 151.513 246.767 151.903ZM256.584 167.568C256.584 167.343 256.623 167.13 256.701 166.931C256.788 166.732 256.9 166.558 257.039 166.411C257.186 166.264 257.36 166.147 257.559 166.06C257.758 165.973 257.971 165.93 258.196 165.93C258.421 165.93 258.634 165.973 258.833 166.06C259.032 166.147 259.206 166.264 259.353 166.411C259.5 166.558 259.617 166.732 259.704 166.931C259.791 167.13 259.834 167.343 259.834 167.568C259.834 167.802 259.791 168.019 259.704 168.218C259.617 168.409 259.5 168.578 259.353 168.725C259.206 168.872 259.032 168.985 258.833 169.063C258.634 169.15 258.421 169.193 258.196 169.193C257.971 169.193 257.758 169.15 257.559 169.063C257.36 168.985 257.186 168.872 257.039 168.725C256.9 168.578 256.788 168.409 256.701 168.218C256.623 168.019 256.584 167.802 256.584 167.568ZM287.503 159.69C287.503 161.085 287.282 162.355 286.84 163.499C286.398 164.643 285.774 165.622 284.968 166.437C284.162 167.252 283.191 167.884 282.056 168.335C280.929 168.777 279.681 168.998 278.312 168.998H271.357V150.369H278.312C279.681 150.369 280.929 150.594 282.056 151.045C283.191 151.487 284.162 152.12 284.968 152.943C285.774 153.758 286.398 154.737 286.84 155.881C287.282 157.025 287.503 158.295 287.503 159.69ZM284.916 159.69C284.916 158.546 284.76 157.523 284.448 156.622C284.136 155.721 283.694 154.958 283.122 154.334C282.55 153.71 281.857 153.233 281.042 152.904C280.227 152.575 279.317 152.41 278.312 152.41H273.879V166.957H278.312C279.317 166.957 280.227 166.792 281.042 166.463C281.857 166.134 282.55 165.661 283.122 165.046C283.694 164.422 284.136 163.659 284.448 162.758C284.76 161.857 284.916 160.834 284.916 159.69ZM299.746 160.977C299.746 160.44 299.668 159.95 299.512 159.508C299.365 159.057 299.144 158.672 298.849 158.351C298.563 158.022 298.212 157.77 297.796 157.597C297.38 157.415 296.908 157.324 296.379 157.324C295.27 157.324 294.39 157.649 293.74 158.299C293.099 158.94 292.7 159.833 292.544 160.977H299.746ZM301.618 167.152C301.332 167.499 300.99 167.802 300.591 168.062C300.193 168.313 299.764 168.521 299.304 168.686C298.854 168.851 298.386 168.972 297.9 169.05C297.415 169.137 296.934 169.18 296.457 169.18C295.547 169.18 294.707 169.028 293.935 168.725C293.173 168.413 292.51 167.962 291.946 167.373C291.392 166.775 290.958 166.038 290.646 165.163C290.334 164.288 290.178 163.282 290.178 162.147C290.178 161.228 290.317 160.37 290.594 159.573C290.88 158.776 291.288 158.087 291.816 157.506C292.345 156.917 292.991 156.457 293.753 156.128C294.516 155.79 295.374 155.621 296.327 155.621C297.116 155.621 297.844 155.755 298.511 156.024C299.187 156.284 299.768 156.665 300.253 157.168C300.747 157.662 301.133 158.277 301.41 159.014C301.688 159.742 301.826 160.574 301.826 161.51C301.826 161.874 301.787 162.117 301.709 162.238C301.631 162.359 301.484 162.42 301.267 162.42H292.466C292.492 163.252 292.605 163.976 292.804 164.591C293.012 165.206 293.298 165.722 293.662 166.138C294.026 166.545 294.46 166.853 294.962 167.061C295.465 167.26 296.028 167.36 296.652 167.36C297.233 167.36 297.731 167.295 298.147 167.165C298.572 167.026 298.936 166.879 299.239 166.723C299.543 166.567 299.794 166.424 299.993 166.294C300.201 166.155 300.379 166.086 300.526 166.086C300.717 166.086 300.864 166.16 300.968 166.307L301.618 167.152ZM309.13 169.206C308.09 169.206 307.289 168.916 306.725 168.335C306.171 167.754 305.893 166.918 305.893 165.826V157.766H304.307C304.169 157.766 304.052 157.727 303.956 157.649C303.861 157.562 303.813 157.432 303.813 157.259V156.336L305.971 156.063L306.504 151.994C306.53 151.864 306.587 151.76 306.673 151.682C306.769 151.595 306.89 151.552 307.037 151.552H308.207V156.089H312.016V157.766H308.207V165.67C308.207 166.225 308.342 166.636 308.61 166.905C308.879 167.174 309.226 167.308 309.65 167.308C309.893 167.308 310.101 167.278 310.274 167.217C310.456 167.148 310.612 167.074 310.742 166.996C310.872 166.918 310.981 166.849 311.067 166.788C311.163 166.719 311.245 166.684 311.314 166.684C311.436 166.684 311.544 166.758 311.639 166.905L312.315 168.01C311.917 168.383 311.436 168.677 310.872 168.894C310.309 169.102 309.728 169.206 309.13 169.206ZM326.687 162.563C327.155 162.563 327.567 162.498 327.922 162.368C328.277 162.238 328.576 162.056 328.819 161.822C329.062 161.588 329.244 161.311 329.365 160.99C329.486 160.661 329.547 160.301 329.547 159.911C329.547 159.105 329.3 158.464 328.806 157.987C328.321 157.51 327.614 157.272 326.687 157.272C325.751 157.272 325.036 157.51 324.542 157.987C324.057 158.464 323.814 159.105 323.814 159.911C323.814 160.301 323.875 160.661 323.996 160.99C324.126 161.311 324.312 161.588 324.555 161.822C324.798 162.056 325.097 162.238 325.452 162.368C325.807 162.498 326.219 162.563 326.687 162.563ZM330.86 169.713C330.86 169.392 330.769 169.132 330.587 168.933C330.405 168.734 330.158 168.578 329.846 168.465C329.543 168.352 329.187 168.274 328.78 168.231C328.373 168.179 327.939 168.14 327.48 168.114C327.029 168.088 326.57 168.062 326.102 168.036C325.634 168.01 325.183 167.967 324.75 167.906C324.265 168.131 323.866 168.417 323.554 168.764C323.251 169.102 323.099 169.501 323.099 169.96C323.099 170.255 323.173 170.528 323.32 170.779C323.476 171.039 323.71 171.26 324.022 171.442C324.334 171.633 324.724 171.78 325.192 171.884C325.669 171.997 326.228 172.053 326.869 172.053C327.493 172.053 328.052 171.997 328.546 171.884C329.04 171.771 329.456 171.611 329.794 171.403C330.141 171.195 330.405 170.948 330.587 170.662C330.769 170.376 330.86 170.06 330.86 169.713ZM333.213 156.349V157.207C333.213 157.493 333.031 157.675 332.667 157.753L331.172 157.948C331.467 158.52 331.614 159.153 331.614 159.846C331.614 160.487 331.488 161.072 331.237 161.601C330.994 162.121 330.656 162.567 330.223 162.94C329.79 163.313 329.27 163.599 328.663 163.798C328.056 163.997 327.398 164.097 326.687 164.097C326.072 164.097 325.491 164.023 324.945 163.876C324.668 164.049 324.455 164.236 324.308 164.435C324.161 164.626 324.087 164.821 324.087 165.02C324.087 165.332 324.213 165.57 324.464 165.735C324.724 165.891 325.062 166.004 325.478 166.073C325.894 166.142 326.366 166.186 326.895 166.203C327.432 166.22 327.978 166.251 328.533 166.294C329.096 166.329 329.642 166.394 330.171 166.489C330.708 166.584 331.185 166.74 331.601 166.957C332.017 167.174 332.351 167.473 332.602 167.854C332.862 168.235 332.992 168.729 332.992 169.336C332.992 169.899 332.849 170.445 332.563 170.974C332.286 171.503 331.883 171.971 331.354 172.378C330.825 172.794 330.175 173.123 329.404 173.366C328.641 173.617 327.779 173.743 326.817 173.743C325.855 173.743 325.014 173.648 324.295 173.457C323.576 173.266 322.978 173.011 322.501 172.69C322.024 172.369 321.665 171.997 321.422 171.572C321.188 171.156 321.071 170.718 321.071 170.259C321.071 169.609 321.275 169.059 321.682 168.608C322.089 168.157 322.648 167.798 323.359 167.529C322.969 167.356 322.657 167.126 322.423 166.84C322.198 166.545 322.085 166.151 322.085 165.657C322.085 165.466 322.12 165.271 322.189 165.072C322.258 164.864 322.362 164.66 322.501 164.461C322.648 164.253 322.826 164.058 323.034 163.876C323.242 163.694 323.485 163.534 323.762 163.395C323.112 163.031 322.605 162.55 322.241 161.952C321.877 161.345 321.695 160.643 321.695 159.846C321.695 159.205 321.816 158.624 322.059 158.104C322.31 157.575 322.657 157.129 323.099 156.765C323.541 156.392 324.065 156.106 324.672 155.907C325.287 155.708 325.959 155.608 326.687 155.608C327.259 155.608 327.792 155.673 328.286 155.803C328.78 155.924 329.231 156.106 329.638 156.349H333.213ZM341.474 155.621C342.436 155.621 343.302 155.781 344.074 156.102C344.845 156.423 345.504 156.878 346.05 157.467C346.596 158.056 347.012 158.771 347.298 159.612C347.592 160.444 347.74 161.376 347.74 162.407C347.74 163.447 347.592 164.383 347.298 165.215C347.012 166.047 346.596 166.758 346.05 167.347C345.504 167.936 344.845 168.391 344.074 168.712C343.302 169.024 342.436 169.18 341.474 169.18C340.503 169.18 339.628 169.024 338.848 168.712C338.076 168.391 337.418 167.936 336.872 167.347C336.326 166.758 335.905 166.047 335.611 165.215C335.325 164.383 335.182 163.447 335.182 162.407C335.182 161.376 335.325 160.444 335.611 159.612C335.905 158.771 336.326 158.056 336.872 157.467C337.418 156.878 338.076 156.423 338.848 156.102C339.628 155.781 340.503 155.621 341.474 155.621ZM341.474 167.373C342.774 167.373 343.744 166.94 344.386 166.073C345.027 165.198 345.348 163.98 345.348 162.42C345.348 160.851 345.027 159.629 344.386 158.754C343.744 157.879 342.774 157.441 341.474 157.441C340.815 157.441 340.239 157.554 339.745 157.779C339.259 158.004 338.852 158.329 338.523 158.754C338.202 159.179 337.959 159.703 337.795 160.327C337.639 160.942 337.561 161.64 337.561 162.42C337.561 163.98 337.881 165.198 338.523 166.073C339.173 166.94 340.156 167.373 341.474 167.373ZM340.473 152.241C340.473 152.44 340.434 152.627 340.356 152.8C340.278 152.973 340.169 153.125 340.031 153.255C339.892 153.385 339.732 153.489 339.55 153.567C339.376 153.645 339.19 153.684 338.991 153.684C338.8 153.684 338.618 153.645 338.445 153.567C338.271 153.489 338.115 153.385 337.977 153.255C337.847 153.125 337.743 152.973 337.665 152.8C337.587 152.627 337.548 152.44 337.548 152.241C337.548 152.042 337.587 151.851 337.665 151.669C337.743 151.487 337.847 151.331 337.977 151.201C338.115 151.062 338.271 150.954 338.445 150.876C338.618 150.798 338.8 150.759 338.991 150.759C339.19 150.759 339.376 150.798 339.55 150.876C339.732 150.954 339.892 151.062 340.031 151.201C340.169 151.331 340.278 151.487 340.356 151.669C340.434 151.851 340.473 152.042 340.473 152.241ZM345.426 152.241C345.426 152.44 345.387 152.627 345.309 152.8C345.231 152.973 345.122 153.125 344.984 153.255C344.854 153.385 344.698 153.489 344.516 153.567C344.342 153.645 344.156 153.684 343.957 153.684C343.757 153.684 343.567 153.645 343.385 153.567C343.211 153.489 343.06 153.385 342.93 153.255C342.8 153.125 342.696 152.973 342.618 152.8C342.54 152.627 342.501 152.44 342.501 152.241C342.501 152.042 342.54 151.851 342.618 151.669C342.696 151.487 342.8 151.331 342.93 151.201C343.06 151.062 343.211 150.954 343.385 150.876C343.567 150.798 343.757 150.759 343.957 150.759C344.156 150.759 344.342 150.798 344.516 150.876C344.698 150.954 344.854 151.062 344.984 151.201C345.122 151.331 345.231 151.487 345.309 151.669C345.387 151.851 345.426 152.042 345.426 152.241ZM353.392 158.468C353.808 157.567 354.319 156.865 354.926 156.362C355.532 155.851 356.273 155.595 357.149 155.595C357.426 155.595 357.69 155.625 357.942 155.686C358.202 155.747 358.431 155.842 358.631 155.972L358.462 157.701C358.41 157.918 358.28 158.026 358.072 158.026C357.95 158.026 357.773 158 357.539 157.948C357.305 157.896 357.04 157.87 356.746 157.87C356.33 157.87 355.957 157.931 355.628 158.052C355.307 158.173 355.017 158.355 354.757 158.598C354.505 158.832 354.276 159.127 354.068 159.482C353.868 159.829 353.686 160.227 353.522 160.678V168.998H351.195V155.829H352.521C352.772 155.829 352.945 155.877 353.041 155.972C353.136 156.067 353.201 156.232 353.236 156.466L353.392 158.468ZM370.126 157.584C370.689 156.986 371.313 156.509 371.998 156.154C372.683 155.799 373.471 155.621 374.364 155.621C375.083 155.621 375.716 155.742 376.262 155.985C376.817 156.219 377.276 156.557 377.64 156.999C378.013 157.432 378.294 157.957 378.485 158.572C378.676 159.187 378.771 159.868 378.771 160.613V168.998H376.444V160.613C376.444 159.616 376.214 158.845 375.755 158.299C375.304 157.744 374.615 157.467 373.688 157.467C373.003 157.467 372.362 157.632 371.764 157.961C371.175 158.29 370.629 158.737 370.126 159.3V168.998H367.799V149.849H370.126V157.584ZM391.631 160.977C391.631 160.44 391.553 159.95 391.397 159.508C391.25 159.057 391.029 158.672 390.734 158.351C390.448 158.022 390.097 157.77 389.681 157.597C389.265 157.415 388.793 157.324 388.264 157.324C387.155 157.324 386.275 157.649 385.625 158.299C384.984 158.94 384.585 159.833 384.429 160.977H391.631ZM393.503 167.152C393.217 167.499 392.875 167.802 392.476 168.062C392.077 168.313 391.648 168.521 391.189 168.686C390.738 168.851 390.27 168.972 389.785 169.05C389.3 169.137 388.819 169.18 388.342 169.18C387.432 169.18 386.591 169.028 385.82 168.725C385.057 168.413 384.394 167.962 383.831 167.373C383.276 166.775 382.843 166.038 382.531 165.163C382.219 164.288 382.063 163.282 382.063 162.147C382.063 161.228 382.202 160.37 382.479 159.573C382.765 158.776 383.172 158.087 383.701 157.506C384.23 156.917 384.875 156.457 385.638 156.128C386.401 155.79 387.259 155.621 388.212 155.621C389.001 155.621 389.729 155.755 390.396 156.024C391.072 156.284 391.653 156.665 392.138 157.168C392.632 157.662 393.018 158.277 393.295 159.014C393.572 159.742 393.711 160.574 393.711 161.51C393.711 161.874 393.672 162.117 393.594 162.238C393.516 162.359 393.369 162.42 393.152 162.42H384.351C384.377 163.252 384.49 163.976 384.689 164.591C384.897 165.206 385.183 165.722 385.547 166.138C385.911 166.545 386.344 166.853 386.847 167.061C387.35 167.26 387.913 167.36 388.537 167.36C389.118 167.36 389.616 167.295 390.032 167.165C390.457 167.026 390.821 166.879 391.124 166.723C391.427 166.567 391.679 166.424 391.878 166.294C392.086 166.155 392.264 166.086 392.411 166.086C392.602 166.086 392.749 166.16 392.853 166.307L393.503 167.152ZM399.257 157.74C399.543 157.419 399.847 157.129 400.167 156.869C400.488 156.609 400.826 156.388 401.181 156.206C401.545 156.015 401.927 155.872 402.325 155.777C402.733 155.673 403.17 155.621 403.638 155.621C404.358 155.621 404.99 155.742 405.536 155.985C406.091 156.219 406.55 156.557 406.914 156.999C407.287 157.432 407.569 157.957 407.759 158.572C407.95 159.187 408.045 159.868 408.045 160.613V168.998H405.718V160.613C405.718 159.616 405.489 158.845 405.029 158.299C404.579 157.744 403.89 157.467 402.962 157.467C402.278 157.467 401.636 157.632 401.038 157.961C400.449 158.29 399.903 158.737 399.4 159.3V168.998H397.073V155.829H398.464C398.794 155.829 398.997 155.989 399.075 156.31L399.257 157.74ZM414.275 157.74C414.561 157.419 414.865 157.129 415.185 156.869C415.506 156.609 415.844 156.388 416.199 156.206C416.563 156.015 416.945 155.872 417.343 155.777C417.751 155.673 418.188 155.621 418.656 155.621C419.376 155.621 420.008 155.742 420.554 155.985C421.109 156.219 421.568 156.557 421.932 156.999C422.305 157.432 422.587 157.957 422.777 158.572C422.968 159.187 423.063 159.868 423.063 160.613V168.998H420.736V160.613C420.736 159.616 420.507 158.845 420.047 158.299C419.597 157.744 418.908 157.467 417.98 157.467C417.296 157.467 416.654 157.632 416.056 157.961C415.467 158.29 414.921 158.737 414.418 159.3V168.998H412.091V155.829H413.482C413.812 155.829 414.015 155.989 414.093 156.31L414.275 157.74ZM435.923 160.977C435.923 160.44 435.845 159.95 435.689 159.508C435.542 159.057 435.321 158.672 435.026 158.351C434.74 158.022 434.389 157.77 433.973 157.597C433.557 157.415 433.085 157.324 432.556 157.324C431.447 157.324 430.567 157.649 429.917 158.299C429.276 158.94 428.877 159.833 428.721 160.977H435.923ZM437.795 167.152C437.509 167.499 437.167 167.802 436.768 168.062C436.37 168.313 435.941 168.521 435.481 168.686C435.031 168.851 434.563 168.972 434.077 169.05C433.592 169.137 433.111 169.18 432.634 169.18C431.724 169.18 430.884 169.028 430.112 168.725C429.35 168.413 428.687 167.962 428.123 167.373C427.569 166.775 427.135 166.038 426.823 165.163C426.511 164.288 426.355 163.282 426.355 162.147C426.355 161.228 426.494 160.37 426.771 159.573C427.057 158.776 427.465 158.087 427.993 157.506C428.522 156.917 429.168 156.457 429.93 156.128C430.693 155.79 431.551 155.621 432.504 155.621C433.293 155.621 434.021 155.755 434.688 156.024C435.364 156.284 435.945 156.665 436.43 157.168C436.924 157.662 437.31 158.277 437.587 159.014C437.865 159.742 438.003 160.574 438.003 161.51C438.003 161.874 437.964 162.117 437.886 162.238C437.808 162.359 437.661 162.42 437.444 162.42H428.643C428.669 163.252 428.782 163.976 428.981 164.591C429.189 165.206 429.475 165.722 429.839 166.138C430.203 166.545 430.637 166.853 431.139 167.061C431.642 167.26 432.205 167.36 432.829 167.36C433.41 167.36 433.908 167.295 434.324 167.165C434.749 167.026 435.113 166.879 435.416 166.723C435.72 166.567 435.971 166.424 436.17 166.294C436.378 166.155 436.556 166.086 436.703 166.086C436.894 166.086 437.041 166.16 437.145 166.307L437.795 167.152ZM460.758 168.998H458.444V157.766H451.658V165.67C451.658 166.225 451.793 166.636 452.061 166.905C452.33 167.174 452.677 167.308 453.101 167.308C453.344 167.308 453.552 167.278 453.725 167.217C453.907 167.148 454.063 167.074 454.193 166.996C454.323 166.918 454.432 166.849 454.518 166.788C454.614 166.719 454.696 166.684 454.765 166.684C454.887 166.684 454.995 166.758 455.09 166.905L455.766 168.01C455.368 168.383 454.887 168.677 454.323 168.894C453.76 169.102 453.179 169.206 452.581 169.206C451.541 169.206 450.74 168.916 450.176 168.335C449.622 167.754 449.344 166.918 449.344 165.826V157.766H447.758C447.62 157.766 447.503 157.727 447.407 157.649C447.312 157.562 447.264 157.432 447.264 157.259V156.336L449.422 156.05L449.955 151.994C449.981 151.864 450.038 151.76 450.124 151.682C450.22 151.595 450.341 151.552 450.488 151.552H451.658V156.089H460.758V168.998ZM461.33 151.604C461.33 151.829 461.283 152.042 461.187 152.241C461.101 152.432 460.979 152.601 460.823 152.748C460.676 152.895 460.503 153.012 460.303 153.099C460.104 153.186 459.892 153.229 459.666 153.229C459.441 153.229 459.229 153.186 459.029 153.099C458.839 153.012 458.67 152.895 458.522 152.748C458.375 152.601 458.258 152.432 458.171 152.241C458.085 152.042 458.041 151.829 458.041 151.604C458.041 151.379 458.085 151.166 458.171 150.967C458.258 150.759 458.375 150.581 458.522 150.434C458.67 150.278 458.839 150.157 459.029 150.07C459.229 149.983 459.441 149.94 459.666 149.94C459.892 149.94 460.104 149.983 460.303 150.07C460.503 150.157 460.676 150.278 460.823 150.434C460.979 150.581 461.101 150.759 461.187 150.967C461.283 151.166 461.33 151.379 461.33 151.604ZM467.472 149.849V168.998H465.158V149.849H467.472ZM474.136 149.849V168.998H471.822V149.849H474.136ZM494.395 160.977C494.395 160.44 494.317 159.95 494.161 159.508C494.014 159.057 493.793 158.672 493.498 158.351C493.212 158.022 492.861 157.77 492.445 157.597C492.029 157.415 491.557 157.324 491.028 157.324C489.919 157.324 489.039 157.649 488.389 158.299C487.748 158.94 487.349 159.833 487.193 160.977H494.395ZM496.267 167.152C495.981 167.499 495.639 167.802 495.24 168.062C494.841 168.313 494.412 168.521 493.953 168.686C493.502 168.851 493.034 168.972 492.549 169.05C492.064 169.137 491.583 169.18 491.106 169.18C490.196 169.18 489.355 169.028 488.584 168.725C487.821 168.413 487.158 167.962 486.595 167.373C486.04 166.775 485.607 166.038 485.295 165.163C484.983 164.288 484.827 163.282 484.827 162.147C484.827 161.228 484.966 160.37 485.243 159.573C485.529 158.776 485.936 158.087 486.465 157.506C486.994 156.917 487.639 156.457 488.402 156.128C489.165 155.79 490.023 155.621 490.976 155.621C491.765 155.621 492.493 155.755 493.16 156.024C493.836 156.284 494.417 156.665 494.902 157.168C495.396 157.662 495.782 158.277 496.059 159.014C496.336 159.742 496.475 160.574 496.475 161.51C496.475 161.874 496.436 162.117 496.358 162.238C496.28 162.359 496.133 162.42 495.916 162.42H487.115C487.141 163.252 487.254 163.976 487.453 164.591C487.661 165.206 487.947 165.722 488.311 166.138C488.675 166.545 489.108 166.853 489.611 167.061C490.114 167.26 490.677 167.36 491.301 167.36C491.882 167.36 492.38 167.295 492.796 167.165C493.221 167.026 493.585 166.879 493.888 166.723C494.191 166.567 494.443 166.424 494.642 166.294C494.85 166.155 495.028 166.086 495.175 166.086C495.366 166.086 495.513 166.16 495.617 166.307L496.267 167.152ZM502.021 157.74C502.307 157.419 502.611 157.129 502.931 156.869C503.252 156.609 503.59 156.388 503.945 156.206C504.309 156.015 504.691 155.872 505.089 155.777C505.497 155.673 505.934 155.621 506.402 155.621C507.122 155.621 507.754 155.742 508.3 155.985C508.855 156.219 509.314 156.557 509.678 156.999C510.051 157.432 510.333 157.957 510.523 158.572C510.714 159.187 510.809 159.868 510.809 160.613V168.998H508.482V160.613C508.482 159.616 508.253 158.845 507.793 158.299C507.343 157.744 506.654 157.467 505.726 157.467C505.042 157.467 504.4 157.632 503.802 157.961C503.213 158.29 502.667 158.737 502.164 159.3V168.998H499.837V155.829H501.228C501.558 155.829 501.761 155.989 501.839 156.31L502.021 157.74ZM526.617 162.563C527.085 162.563 527.496 162.498 527.852 162.368C528.207 162.238 528.506 162.056 528.749 161.822C528.991 161.588 529.173 161.311 529.295 160.99C529.416 160.661 529.477 160.301 529.477 159.911C529.477 159.105 529.23 158.464 528.736 157.987C528.25 157.51 527.544 157.272 526.617 157.272C525.681 157.272 524.966 157.51 524.472 157.987C523.986 158.464 523.744 159.105 523.744 159.911C523.744 160.301 523.804 160.661 523.926 160.99C524.056 161.311 524.242 161.588 524.485 161.822C524.727 162.056 525.026 162.238 525.382 162.368C525.737 162.498 526.149 162.563 526.617 162.563ZM530.79 169.713C530.79 169.392 530.699 169.132 530.517 168.933C530.335 168.734 530.088 168.578 529.776 168.465C529.472 168.352 529.117 168.274 528.71 168.231C528.302 168.179 527.869 168.14 527.41 168.114C526.959 168.088 526.5 168.062 526.032 168.036C525.564 168.01 525.113 167.967 524.68 167.906C524.194 168.131 523.796 168.417 523.484 168.764C523.18 169.102 523.029 169.501 523.029 169.96C523.029 170.255 523.102 170.528 523.25 170.779C523.406 171.039 523.64 171.26 523.952 171.442C524.264 171.633 524.654 171.78 525.122 171.884C525.598 171.997 526.157 172.053 526.799 172.053C527.423 172.053 527.982 171.997 528.476 171.884C528.97 171.771 529.386 171.611 529.724 171.403C530.07 171.195 530.335 170.948 530.517 170.662C530.699 170.376 530.79 170.06 530.79 169.713ZM533.143 156.349V157.207C533.143 157.493 532.961 157.675 532.597 157.753L531.102 157.948C531.396 158.52 531.544 159.153 531.544 159.846C531.544 160.487 531.418 161.072 531.167 161.601C530.924 162.121 530.586 162.567 530.153 162.94C529.719 163.313 529.199 163.599 528.593 163.798C527.986 163.997 527.327 164.097 526.617 164.097C526.001 164.097 525.421 164.023 524.875 163.876C524.597 164.049 524.385 164.236 524.238 164.435C524.09 164.626 524.017 164.821 524.017 165.02C524.017 165.332 524.142 165.57 524.394 165.735C524.654 165.891 524.992 166.004 525.408 166.073C525.824 166.142 526.296 166.186 526.825 166.203C527.362 166.22 527.908 166.251 528.463 166.294C529.026 166.329 529.572 166.394 530.101 166.489C530.638 166.584 531.115 166.74 531.531 166.957C531.947 167.174 532.28 167.473 532.532 167.854C532.792 168.235 532.922 168.729 532.922 169.336C532.922 169.899 532.779 170.445 532.493 170.974C532.215 171.503 531.812 171.971 531.284 172.378C530.755 172.794 530.105 173.123 529.334 173.366C528.571 173.617 527.709 173.743 526.747 173.743C525.785 173.743 524.944 173.648 524.225 173.457C523.505 173.266 522.907 173.011 522.431 172.69C521.954 172.369 521.594 171.997 521.352 171.572C521.118 171.156 521.001 170.718 521.001 170.259C521.001 169.609 521.204 169.059 521.612 168.608C522.019 168.157 522.578 167.798 523.289 167.529C522.899 167.356 522.587 167.126 522.353 166.84C522.127 166.545 522.015 166.151 522.015 165.657C522.015 165.466 522.049 165.271 522.119 165.072C522.188 164.864 522.292 164.66 522.431 164.461C522.578 164.253 522.756 164.058 522.964 163.876C523.172 163.694 523.414 163.534 523.692 163.395C523.042 163.031 522.535 162.55 522.171 161.952C521.807 161.345 521.625 160.643 521.625 159.846C521.625 159.205 521.746 158.624 521.989 158.104C522.24 157.575 522.587 157.129 523.029 156.765C523.471 156.392 523.995 156.106 524.602 155.907C525.217 155.708 525.889 155.608 526.617 155.608C527.189 155.608 527.722 155.673 528.216 155.803C528.71 155.924 529.16 156.106 529.568 156.349H533.143ZM538.253 158.468C538.669 157.567 539.18 156.865 539.787 156.362C540.393 155.851 541.134 155.595 542.01 155.595C542.287 155.595 542.551 155.625 542.803 155.686C543.063 155.747 543.292 155.842 543.492 155.972L543.323 157.701C543.271 157.918 543.141 158.026 542.933 158.026C542.811 158.026 542.634 158 542.4 157.948C542.166 157.896 541.901 157.87 541.607 157.87C541.191 157.87 540.818 157.931 540.489 158.052C540.168 158.173 539.878 158.355 539.618 158.598C539.366 158.832 539.137 159.127 538.929 159.482C538.729 159.829 538.547 160.227 538.383 160.678V168.998H536.056V155.829H537.382C537.633 155.829 537.806 155.877 537.902 155.972C537.997 156.067 538.062 156.232 538.097 156.466L538.253 158.468ZM557.408 155.829L550.063 172.885C549.985 173.058 549.886 173.197 549.764 173.301C549.652 173.405 549.474 173.457 549.231 173.457H547.515L549.92 168.231L544.486 155.829H546.488C546.688 155.829 546.844 155.881 546.956 155.985C547.078 156.08 547.16 156.189 547.203 156.31L550.726 164.604C550.865 164.968 550.982 165.349 551.077 165.748C551.199 165.341 551.329 164.955 551.467 164.591L554.886 156.31C554.938 156.171 555.025 156.059 555.146 155.972C555.276 155.877 555.419 155.829 555.575 155.829H557.408ZM559.973 168.998V155.829H561.364C561.693 155.829 561.897 155.989 561.975 156.31L562.144 157.662C562.629 157.064 563.175 156.574 563.782 156.193C564.388 155.812 565.09 155.621 565.888 155.621C566.772 155.621 567.487 155.868 568.033 156.362C568.587 156.856 568.986 157.523 569.229 158.364C569.419 157.887 569.662 157.476 569.957 157.129C570.26 156.782 570.598 156.496 570.971 156.271C571.343 156.046 571.738 155.881 572.154 155.777C572.578 155.673 573.007 155.621 573.441 155.621C574.134 155.621 574.749 155.734 575.287 155.959C575.833 156.176 576.292 156.496 576.665 156.921C577.046 157.346 577.336 157.87 577.536 158.494C577.735 159.109 577.835 159.816 577.835 160.613V168.998H575.508V160.613C575.508 159.582 575.282 158.802 574.832 158.273C574.381 157.736 573.731 157.467 572.882 157.467C572.5 157.467 572.136 157.536 571.79 157.675C571.452 157.805 571.153 158 570.893 158.26C570.633 158.52 570.425 158.849 570.269 159.248C570.121 159.638 570.048 160.093 570.048 160.613V168.998H567.721V160.613C567.721 159.556 567.508 158.767 567.084 158.247C566.659 157.727 566.039 157.467 565.225 157.467C564.653 157.467 564.124 157.623 563.639 157.935C563.153 158.238 562.707 158.654 562.3 159.183V168.998H559.973ZM190.689 200.998V189.805L189.233 189.636C189.051 189.593 188.899 189.528 188.778 189.441C188.665 189.346 188.609 189.211 188.609 189.038V188.089H190.689V186.815C190.689 186.061 190.793 185.394 191.001 184.813C191.218 184.224 191.521 183.73 191.911 183.331C192.31 182.924 192.786 182.616 193.341 182.408C193.896 182.2 194.52 182.096 195.213 182.096C195.802 182.096 196.344 182.183 196.838 182.356L196.786 183.513C196.769 183.721 196.652 183.834 196.435 183.851C196.227 183.868 195.945 183.877 195.59 183.877C195.191 183.877 194.827 183.929 194.498 184.033C194.177 184.137 193.9 184.306 193.666 184.54C193.432 184.774 193.25 185.082 193.12 185.463C192.999 185.844 192.938 186.317 192.938 186.88V188.089H196.734V189.766H193.016V200.998H190.689ZM204.586 187.621C205.548 187.621 206.414 187.781 207.186 188.102C207.957 188.423 208.616 188.878 209.162 189.467C209.708 190.056 210.124 190.771 210.41 191.612C210.704 192.444 210.852 193.376 210.852 194.407C210.852 195.447 210.704 196.383 210.41 197.215C210.124 198.047 209.708 198.758 209.162 199.347C208.616 199.936 207.957 200.391 207.186 200.712C206.414 201.024 205.548 201.18 204.586 201.18C203.615 201.18 202.74 201.024 201.96 200.712C201.188 200.391 200.53 199.936 199.984 199.347C199.438 198.758 199.017 198.047 198.723 197.215C198.437 196.383 198.294 195.447 198.294 194.407C198.294 193.376 198.437 192.444 198.723 191.612C199.017 190.771 199.438 190.056 199.984 189.467C200.53 188.878 201.188 188.423 201.96 188.102C202.74 187.781 203.615 187.621 204.586 187.621ZM204.586 199.373C205.886 199.373 206.856 198.94 207.498 198.073C208.139 197.198 208.46 195.98 208.46 194.42C208.46 192.851 208.139 191.629 207.498 190.754C206.856 189.879 205.886 189.441 204.586 189.441C203.927 189.441 203.351 189.554 202.857 189.779C202.371 190.004 201.964 190.329 201.635 190.754C201.314 191.179 201.071 191.703 200.907 192.327C200.751 192.942 200.673 193.64 200.673 194.42C200.673 195.98 200.993 197.198 201.635 198.073C202.285 198.94 203.268 199.373 204.586 199.373ZM203.585 184.241C203.585 184.44 203.546 184.627 203.468 184.8C203.39 184.973 203.281 185.125 203.143 185.255C203.004 185.385 202.844 185.489 202.662 185.567C202.488 185.645 202.302 185.684 202.103 185.684C201.912 185.684 201.73 185.645 201.557 185.567C201.383 185.489 201.227 185.385 201.089 185.255C200.959 185.125 200.855 184.973 200.777 184.8C200.699 184.627 200.66 184.44 200.66 184.241C200.66 184.042 200.699 183.851 200.777 183.669C200.855 183.487 200.959 183.331 201.089 183.201C201.227 183.062 201.383 182.954 201.557 182.876C201.73 182.798 201.912 182.759 202.103 182.759C202.302 182.759 202.488 182.798 202.662 182.876C202.844 182.954 203.004 183.062 203.143 183.201C203.281 183.331 203.39 183.487 203.468 183.669C203.546 183.851 203.585 184.042 203.585 184.241ZM208.538 184.241C208.538 184.44 208.499 184.627 208.421 184.8C208.343 184.973 208.234 185.125 208.096 185.255C207.966 185.385 207.81 185.489 207.628 185.567C207.454 185.645 207.268 185.684 207.069 185.684C206.869 185.684 206.679 185.645 206.497 185.567C206.323 185.489 206.172 185.385 206.042 185.255C205.912 185.125 205.808 184.973 205.73 184.8C205.652 184.627 205.613 184.44 205.613 184.241C205.613 184.042 205.652 183.851 205.73 183.669C205.808 183.487 205.912 183.331 206.042 183.201C206.172 183.062 206.323 182.954 206.497 182.876C206.679 182.798 206.869 182.759 207.069 182.759C207.268 182.759 207.454 182.798 207.628 182.876C207.81 182.954 207.966 183.062 208.096 183.201C208.234 183.331 208.343 183.487 208.421 183.669C208.499 183.851 208.538 184.042 208.538 184.241ZM216.504 190.468C216.92 189.567 217.431 188.865 218.038 188.362C218.644 187.851 219.385 187.595 220.261 187.595C220.538 187.595 220.802 187.625 221.054 187.686C221.314 187.747 221.543 187.842 221.743 187.972L221.574 189.701C221.522 189.918 221.392 190.026 221.184 190.026C221.062 190.026 220.885 190 220.651 189.948C220.417 189.896 220.152 189.87 219.858 189.87C219.442 189.87 219.069 189.931 218.74 190.052C218.419 190.173 218.129 190.355 217.869 190.598C217.617 190.832 217.388 191.127 217.18 191.482C216.98 191.829 216.798 192.227 216.634 192.678V200.998H214.307V187.829H215.633C215.884 187.829 216.057 187.877 216.153 187.972C216.248 188.067 216.313 188.232 216.348 188.466L216.504 190.468ZM226.624 189.584C227.188 188.986 227.812 188.509 228.496 188.154C229.181 187.799 229.97 187.621 230.862 187.621C231.582 187.621 232.214 187.742 232.76 187.985C233.315 188.219 233.774 188.557 234.138 188.999C234.511 189.432 234.793 189.957 234.983 190.572C235.174 191.187 235.269 191.868 235.269 192.613V200.998H232.942V192.613C232.942 191.616 232.713 190.845 232.253 190.299C231.803 189.744 231.114 189.467 230.186 189.467C229.502 189.467 228.86 189.632 228.262 189.961C227.673 190.29 227.127 190.737 226.624 191.3V200.998H224.297V181.849H226.624V189.584ZM246.452 195.07C245.386 195.105 244.476 195.191 243.722 195.33C242.977 195.46 242.366 195.633 241.889 195.85C241.421 196.067 241.079 196.322 240.862 196.617C240.654 196.912 240.55 197.241 240.55 197.605C240.55 197.952 240.607 198.251 240.719 198.502C240.832 198.753 240.984 198.961 241.174 199.126C241.374 199.282 241.603 199.399 241.863 199.477C242.132 199.546 242.418 199.581 242.721 199.581C243.129 199.581 243.501 199.542 243.839 199.464C244.177 199.377 244.494 199.256 244.788 199.1C245.092 198.944 245.378 198.758 245.646 198.541C245.924 198.324 246.192 198.077 246.452 197.8V195.07ZM238.977 189.688C239.705 188.986 240.49 188.462 241.33 188.115C242.171 187.768 243.103 187.595 244.125 187.595C244.862 187.595 245.516 187.716 246.088 187.959C246.66 188.202 247.141 188.54 247.531 188.973C247.921 189.406 248.216 189.931 248.415 190.546C248.615 191.161 248.714 191.837 248.714 192.574V200.998H247.687C247.462 200.998 247.289 200.963 247.167 200.894C247.046 200.816 246.951 200.669 246.881 200.452L246.621 199.204C246.275 199.525 245.937 199.811 245.607 200.062C245.278 200.305 244.931 200.513 244.567 200.686C244.203 200.851 243.813 200.976 243.397 201.063C242.99 201.158 242.535 201.206 242.032 201.206C241.521 201.206 241.04 201.137 240.589 200.998C240.139 200.851 239.744 200.634 239.406 200.348C239.077 200.062 238.813 199.702 238.613 199.269C238.423 198.827 238.327 198.307 238.327 197.709C238.327 197.189 238.47 196.691 238.756 196.214C239.042 195.729 239.506 195.3 240.147 194.927C240.789 194.554 241.625 194.251 242.656 194.017C243.688 193.774 244.953 193.636 246.452 193.601V192.574C246.452 191.551 246.231 190.78 245.789 190.26C245.347 189.731 244.702 189.467 243.852 189.467C243.28 189.467 242.799 189.541 242.409 189.688C242.028 189.827 241.694 189.987 241.408 190.169C241.131 190.342 240.888 190.503 240.68 190.65C240.481 190.789 240.282 190.858 240.082 190.858C239.926 190.858 239.792 190.819 239.679 190.741C239.567 190.654 239.471 190.55 239.393 190.429L238.977 189.688ZM254.943 189.74C255.229 189.419 255.533 189.129 255.853 188.869C256.174 188.609 256.512 188.388 256.867 188.206C257.231 188.015 257.613 187.872 258.011 187.777C258.419 187.673 258.856 187.621 259.324 187.621C260.044 187.621 260.676 187.742 261.222 187.985C261.777 188.219 262.236 188.557 262.6 188.999C262.973 189.432 263.255 189.957 263.445 190.572C263.636 191.187 263.731 191.868 263.731 192.613V200.998H261.404V192.613C261.404 191.616 261.175 190.845 260.715 190.299C260.265 189.744 259.576 189.467 258.648 189.467C257.964 189.467 257.322 189.632 256.724 189.961C256.135 190.29 255.589 190.737 255.086 191.3V200.998H252.759V187.829H254.15C254.48 187.829 254.683 187.989 254.761 188.31L254.943 189.74ZM276.357 190.962C275.924 190.381 275.456 189.978 274.953 189.753C274.451 189.519 273.887 189.402 273.263 189.402C272.041 189.402 271.101 189.84 270.442 190.715C269.784 191.59 269.454 192.838 269.454 194.459C269.454 195.317 269.528 196.054 269.675 196.669C269.823 197.276 270.039 197.778 270.325 198.177C270.611 198.567 270.962 198.853 271.378 199.035C271.794 199.217 272.267 199.308 272.795 199.308C273.558 199.308 274.221 199.135 274.784 198.788C275.356 198.441 275.881 197.952 276.357 197.319V190.962ZM278.671 181.849V200.998H277.293C276.964 200.998 276.756 200.838 276.669 200.517L276.461 198.918C275.898 199.594 275.257 200.14 274.537 200.556C273.818 200.972 272.986 201.18 272.041 201.18C271.287 201.18 270.603 201.037 269.987 200.751C269.372 200.456 268.848 200.027 268.414 199.464C267.981 198.901 267.647 198.199 267.413 197.358C267.179 196.517 267.062 195.551 267.062 194.459C267.062 193.488 267.192 192.587 267.452 191.755C267.712 190.914 268.085 190.186 268.57 189.571C269.056 188.956 269.649 188.475 270.351 188.128C271.062 187.773 271.859 187.595 272.743 187.595C273.549 187.595 274.238 187.734 274.81 188.011C275.391 188.28 275.907 188.657 276.357 189.142V181.849H278.671ZM285.238 181.849V200.998H282.924V181.849H285.238ZM296.648 195.07C295.582 195.105 294.672 195.191 293.918 195.33C293.172 195.46 292.561 195.633 292.085 195.85C291.617 196.067 291.274 196.322 291.058 196.617C290.85 196.912 290.746 197.241 290.746 197.605C290.746 197.952 290.802 198.251 290.915 198.502C291.027 198.753 291.179 198.961 291.37 199.126C291.569 199.282 291.799 199.399 292.059 199.477C292.327 199.546 292.613 199.581 292.917 199.581C293.324 199.581 293.697 199.542 294.035 199.464C294.373 199.377 294.689 199.256 294.984 199.1C295.287 198.944 295.573 198.758 295.842 198.541C296.119 198.324 296.388 198.077 296.648 197.8V195.07ZM289.173 189.688C289.901 188.986 290.685 188.462 291.526 188.115C292.366 187.768 293.298 187.595 294.321 187.595C295.057 187.595 295.712 187.716 296.284 187.959C296.856 188.202 297.337 188.54 297.727 188.973C298.117 189.406 298.411 189.931 298.611 190.546C298.81 191.161 298.91 191.837 298.91 192.574V200.998H297.883C297.657 200.998 297.484 200.963 297.363 200.894C297.241 200.816 297.146 200.669 297.077 200.452L296.817 199.204C296.47 199.525 296.132 199.811 295.803 200.062C295.473 200.305 295.127 200.513 294.763 200.686C294.399 200.851 294.009 200.976 293.593 201.063C293.185 201.158 292.73 201.206 292.228 201.206C291.716 201.206 291.235 201.137 290.785 200.998C290.334 200.851 289.94 200.634 289.602 200.348C289.272 200.062 289.008 199.702 288.809 199.269C288.618 198.827 288.523 198.307 288.523 197.709C288.523 197.189 288.666 196.691 288.952 196.214C289.238 195.729 289.701 195.3 290.343 194.927C290.984 194.554 291.82 194.251 292.852 194.017C293.883 193.774 295.148 193.636 296.648 193.601V192.574C296.648 191.551 296.427 190.78 295.985 190.26C295.543 189.731 294.897 189.467 294.048 189.467C293.476 189.467 292.995 189.541 292.605 189.688C292.223 189.827 291.89 189.987 291.604 190.169C291.326 190.342 291.084 190.503 290.876 190.65C290.676 190.789 290.477 190.858 290.278 190.858C290.122 190.858 289.987 190.819 289.875 190.741C289.762 190.654 289.667 190.55 289.589 190.429L289.173 189.688ZM305.151 190.468C305.567 189.567 306.079 188.865 306.685 188.362C307.292 187.851 308.033 187.595 308.908 187.595C309.186 187.595 309.45 187.625 309.701 187.686C309.961 187.747 310.191 187.842 310.39 187.972L310.221 189.701C310.169 189.918 310.039 190.026 309.831 190.026C309.71 190.026 309.532 190 309.298 189.948C309.064 189.896 308.8 189.87 308.505 189.87C308.089 189.87 307.717 189.931 307.387 190.052C307.067 190.173 306.776 190.355 306.516 190.598C306.265 190.832 306.035 191.127 305.827 191.482C305.628 191.829 305.446 192.227 305.281 192.678V200.998H302.954V187.829H304.28C304.532 187.829 304.705 187.877 304.8 187.972C304.896 188.067 304.961 188.232 304.995 188.466L305.151 190.468ZM321.226 192.977C321.226 192.44 321.148 191.95 320.992 191.508C320.845 191.057 320.624 190.672 320.329 190.351C320.043 190.022 319.692 189.77 319.276 189.597C318.86 189.415 318.388 189.324 317.859 189.324C316.75 189.324 315.87 189.649 315.22 190.299C314.579 190.94 314.18 191.833 314.024 192.977H321.226ZM323.098 199.152C322.812 199.499 322.47 199.802 322.071 200.062C321.672 200.313 321.243 200.521 320.784 200.686C320.333 200.851 319.865 200.972 319.38 201.05C318.895 201.137 318.414 201.18 317.937 201.18C317.027 201.18 316.186 201.028 315.415 200.725C314.652 200.413 313.989 199.962 313.426 199.373C312.871 198.775 312.438 198.038 312.126 197.163C311.814 196.288 311.658 195.282 311.658 194.147C311.658 193.228 311.797 192.37 312.074 191.573C312.36 190.776 312.767 190.087 313.296 189.506C313.825 188.917 314.47 188.457 315.233 188.128C315.996 187.79 316.854 187.621 317.807 187.621C318.596 187.621 319.324 187.755 319.991 188.024C320.667 188.284 321.248 188.665 321.733 189.168C322.227 189.662 322.613 190.277 322.89 191.014C323.167 191.742 323.306 192.574 323.306 193.51C323.306 193.874 323.267 194.117 323.189 194.238C323.111 194.359 322.964 194.42 322.747 194.42H313.946C313.972 195.252 314.085 195.976 314.284 196.591C314.492 197.206 314.778 197.722 315.142 198.138C315.506 198.545 315.939 198.853 316.442 199.061C316.945 199.26 317.508 199.36 318.132 199.36C318.713 199.36 319.211 199.295 319.627 199.165C320.052 199.026 320.416 198.879 320.719 198.723C321.022 198.567 321.274 198.424 321.473 198.294C321.681 198.155 321.859 198.086 322.006 198.086C322.197 198.086 322.344 198.16 322.448 198.307L323.098 199.152ZM326.278 199.568C326.278 199.343 326.317 199.13 326.395 198.931C326.482 198.732 326.595 198.558 326.733 198.411C326.881 198.264 327.054 198.147 327.253 198.06C327.453 197.973 327.665 197.93 327.89 197.93C328.116 197.93 328.328 197.973 328.527 198.06C328.727 198.147 328.9 198.264 329.047 198.411C329.195 198.558 329.312 198.732 329.398 198.931C329.485 199.13 329.528 199.343 329.528 199.568C329.528 199.802 329.485 200.019 329.398 200.218C329.312 200.409 329.195 200.578 329.047 200.725C328.9 200.872 328.727 200.985 328.527 201.063C328.328 201.15 328.116 201.193 327.89 201.193C327.665 201.193 327.453 201.15 327.253 201.063C327.054 200.985 326.881 200.872 326.733 200.725C326.595 200.578 326.482 200.409 326.395 200.218C326.317 200.019 326.278 199.802 326.278 199.568ZM332.164 181.121C332.528 181.736 332.775 182.386 332.905 183.071C333.035 183.756 333.048 184.432 332.944 185.099C332.84 185.766 332.624 186.408 332.294 187.023C331.965 187.638 331.527 188.184 330.981 188.661L330.279 188.206C330.149 188.128 330.089 188.028 330.097 187.907C330.115 187.777 330.158 187.673 330.227 187.595C330.453 187.318 330.643 186.984 330.799 186.594C330.964 186.195 331.068 185.771 331.111 185.32C331.163 184.861 331.142 184.388 331.046 183.903C330.96 183.418 330.782 182.95 330.513 182.499C330.401 182.317 330.366 182.157 330.409 182.018C330.461 181.871 330.57 181.762 330.734 181.693L332.164 181.121ZM336.116 181.121C336.48 181.736 336.727 182.386 336.857 183.071C336.987 183.756 337 184.432 336.896 185.099C336.792 185.766 336.576 186.408 336.246 187.023C335.917 187.638 335.479 188.184 334.933 188.661L334.231 188.206C334.101 188.128 334.041 188.028 334.049 187.907C334.067 187.777 334.11 187.673 334.179 187.595C334.405 187.318 334.595 186.984 334.751 186.594C334.916 186.195 335.02 185.771 335.063 185.32C335.115 184.861 335.094 184.388 334.998 183.903C334.912 183.418 334.734 182.95 334.465 182.499C334.353 182.317 334.318 182.157 334.361 182.018C334.413 181.871 334.522 181.762 334.686 181.693L336.116 181.121Z" fill="white"/>
</svg>
